<svg height="512" viewBox="0 0 512 512" width="512" xmlns="http://www.w3.org/2000/svg"><g id="Outline"><path d="m384.015 279.984a32 32 0 0 1 -22.628-54.627l25.373-25.373h-338.745a32 32 0 0 1 0-64h338.745l-25.373-25.372a32 32 0 0 1 45.255-45.256l80 80a32.038 32.038 0 0 1 0 45.255l-80 80a31.79 31.79 0 0 1 -22.627 9.373zm-336-128a16 16 0 0 0 0 32h358.059a8 8 0 0 1 5.657 13.657l-39.031 39.029a16 16 0 0 0 22.629 22.63l80-80a16.02 16.02 0 0 0 0-22.628l-80-80a16 16 0 1 0 -22.629 22.628l39.029 39.03a8 8 0 0 1 -5.657 13.656z"/><path d="m127.985 456a31.79 31.79 0 0 1 -22.628-9.372l-80-80a32.038 32.038 0 0 1 0-45.255l80-80a32 32 0 0 1 45.256 45.254l-25.373 25.373h338.745a32 32 0 0 1 0 64h-338.745l25.373 25.372a32 32 0 0 1 -22.628 54.628zm0-207.992a15.95 15.95 0 0 0 -11.315 4.679l-80 80a16.018 16.018 0 0 0 0 22.627l80 80a16 16 0 1 0 22.63-22.628l-39.029-39.029a8 8 0 0 1 5.655-13.657h358.059a16 16 0 0 0 0-32h-358.059a8 8 0 0 1 -5.657-13.657l39.029-39.03a15.992 15.992 0 0 0 -11.313-27.3z"/></g></svg>