<?xml version="1.0" encoding="utf-8"?>
<!-- Generator: Adobe Illustrator 26.0.0, SVG Export Plug-In . SVG Version: 6.00 Build 0)  -->
<svg version="1.1" id="Capa_1" xmlns="http://www.w3.org/2000/svg" xmlns:xlink="http://www.w3.org/1999/xlink" x="0px" y="0px"
	 viewBox="0 0 226 77" style="enable-background:new 0 0 226 77;" xml:space="preserve">
<style type="text/css">
	.st0{fill:#FFFFFF;stroke:#000000;stroke-miterlimit:10;}
	.st1{fill:#F1F3F6;}
	.st2{fill:#D31A2B;}
	.st3{fill:#FFFFFF;}
	.st4{fill:none;stroke:#000000;stroke-width:0.25;stroke-miterlimit:10;}
	.st5{fill:none;stroke:#D6D7D8;stroke-width:0.5;stroke-miterlimit:10;}
	.st6{fill:#CAB580;}
	.st7{fill:#E0E0E0;}
	.st8{fill:#2563EB;}
	.st9{font-family:'HelveticaNeueLT-77BdCn';}
	.st10{font-size:18.4933px;}
</style>
<rect x="-2032.4" y="295.3" class="st0" width="1768.8" height="991.9"/>
<rect x="-50.5" y="292.5" class="st0" width="1768.8" height="991.9"/>
<rect x="-49.4" y="1202.2" class="st1" width="1767.8" height="85.6"/>
<g>
	<rect x="517.9" y="134.7" style="fill:none;" width="818.4" height="75.5"/>
	<text transform="matrix(1 0 0 1 628.2031 163.0186)" style="font-family:'Roboto-Bold'; font-size:37.7134px;">Bienvenido al Sistema de Admisión</text>
</g>
<g>
	<rect x="504.9" y="77.7" style="fill:none;" width="818.4" height="75.5"/>
	<text transform="matrix(1 0 0 1 538.6904 106.0186)" style="font-family:'Roboto-Bold'; font-size:37.7134px;">Escuela Superior Politécnica de Chimborazo</text>
</g>
<rect x="48.1" y="210.8" style="fill:none;" width="550" height="24.6"/>
<text transform="matrix(1 0 0 1 48.0898 230.5518)" style="font-family:'HelveticaNeueLT-67MdCn'; font-size:27.6215px;">Sistema de Admisión</text>
<rect x="-49.3" y="293.3" class="st2" width="1766.3" height="85.6"/>
<g>
	<g>
		<path class="st3" d="M-102.4,237L-102.4,237L-102.4,237L-102.4,237L-102.4,237c-2.5-1.3-5.2-1.3-5.5-1.3h-12.1v3.2h12.2
			c0,0,0,0,0,0c0,0,3.7-0.1,5.4,2.1l0,0h0l0,0c1.7-2.2,5.4-2.1,5.4-2.1c0,0,0,0,0,0h12v-3.2h-12C-97.2,235.7-99.9,235.7-102.4,237z"
			/>
		<path class="st3" d="M-79.1,222.3v-41.5h-3.2h-40.3h-3.2v41.5c0,0,0,0.1,0,0.1c0,0.3,0,2.8,2,4.8c1.5,1.6,3.8,2.4,6.7,2.5v0h0.1v0
			h1.3l0,0h7.9c0,0,0,0,0,0c0,0,3.7-0.1,5.4,2.1l0,0h0c1.7-2.2,5.4-2.1,5.4-2.1c0,0,0,0,0,0l8.7,0l0,0c3.1,0,5.5-0.8,7.1-2.5
			C-79.1,225.1-79.1,222.7-79.1,222.3z M-122.7,184h40.3v38.3c0,0,0,0,0,0.1c0,0,0,1.4-1.1,2.5c-0.9,1-2.4,1.5-4.5,1.5l0,0.4l0-0.4
			h-9c-0.4,0-3,0-5.5,1.3c0,0,0,0,0,0h0l0,0c0,0,0,0,0,0c-2.5-1.3-5.2-1.3-5.5-1.3h-9.2c-2-0.1-3.5-0.6-4.4-1.5
			c-1-1-1.1-2.3-1.1-2.5L-122.7,184z"/>
		<path class="st3" d="M-91.8,211.5c-0.1,0-0.2,0-0.3,0c-0.6,0-1-0.4-1-0.4l0,0c-0.1-0.1-0.1-0.1-0.2-0.2c-2.3-1.7-4-1.6-5.2-1.4
			c-0.4,0-0.7,0.1-0.9,0c-0.2-0.1-0.8-0.5-1.2-0.9c-3.2-3.3-6.7-3.2-9-2.6c-2.2,0.6-3.8,1.9-4.1,2.2l-5.9,4.6v4.1l7.9-6.2
			c0,0,0.1,0,0.1-0.1c0.5-0.4,4.7-3.9,8.7,0.2c0,0,0.1,0.1,0.1,0.1c0.5,0.4,1.6,1.4,2.7,1.7c0.8,0.2,1.5,0.1,2.1,0.1
			c0.9-0.1,1.6-0.2,2.8,0.8c0.4,0.3,1.5,1.2,3.1,1.2c0.1,0,0.3,0,0.5,0c0.8,0,1.6-0.1,3.2,1.2c0.6,0.4,1.6,1.2,2.8,2.1v-4
			c-0.4-0.3-0.7-0.5-0.9-0.7C-88.9,211.3-90.7,211.4-91.8,211.5z"/>
		<path class="st3" d="M-87.4,202.6c-0.3-1.1-0.8-2.2-1.3-3.2l1.9-1.9l-6.1-6.1l-1.9,1.9c-1-0.6-2.1-1-3.2-1.3v-2.7h-8.6v2.7
			c-1.1,0.3-2.2,0.8-3.2,1.3l-1.9-1.9l-6.1,6.1l1.9,1.9c-0.6,1-1,2.1-1.3,3.2h-2.7v7.3l2.5-2v-2.8h2.1l0.2-1c0.3-1.5,0.9-3,1.8-4.3
			l0.5-0.8l-1.5-1.5l2.6-2.6l1.5,1.5l0.8-0.5c1.3-0.8,2.8-1.4,4.3-1.8l1-0.2v-2.1h3.6v2.1l1,0.2c1.5,0.3,3,0.9,4.3,1.8l0.8,0.5
			l1.5-1.5l2.6,2.6L-92,199l0.5,0.8c0.8,1.3,1.4,2.8,1.8,4.3l0.2,1h2.1l0,4l0.1,0.1c0.2,0.1,0.4,0.3,0.6,0.5
			c0.2,0.2,0.5,0.4,0.9,0.7l0.9,0.7v-8.3H-87.4z"/>
	</g>
</g>
<text transform="matrix(1 0 0 1 743.8467 1255.0527)" style="font-family:'HelveticaNeueLT-67MdCn'; font-size:18.4143px;">Escuela Superior Politécnica de Chimborazo@2022</text>
<line class="st4" x1="35.3" y1="380.5" x2="1717.4" y2="380.5"/>
<path class="st5" d="M-169.7,1639.1l351.3,0.6c11.2,0,20.3-9,20.3-20.1v-39.4c0-11.1-9.1-20.1-20.3-20.1l-350-0.2L-169.7,1639.1z"/>
<path class="st6" d="M-131,1639.8h-45c-9.8,0-17.8-7.9-17.8-17.8v-45c0-9.8,7.9-17.8,17.8-17.8h45h21.4v80.4L-131,1639.8z"/>
<g>
	<rect x="-138.3" y="1585.8" style="fill:none;" width="321.2" height="37.4"/>
	<text transform="matrix(1 0 0 1 -49.4805 1609.3232)" style="font-family:'Roboto-Bold'; font-size:31.4279px;">Tutoriales </text>
</g>
<path class="st5" d="M-511.6,1888l351.3,0.6c11.2,0,20.3-9,20.3-20.1v-39.4c0-11.1-9.1-20.1-20.3-20.1l-350-0.2L-511.6,1888z"/>
<path class="st2" d="M-473,1888.7h-45c-9.8,0-17.8-7.9-17.8-17.8v-45c0-9.8,7.9-17.8,17.8-17.8h45h21.4v80.4L-473,1888.7z"/>
<path class="st5" d="M-85.5,1888l351.3,0.6c11.2,0,20.3-9,20.3-20.1v-39.4c0-11.1-9.1-20.1-20.3-20.1l-350-0.2L-85.5,1888z"/>
<path class="st2" d="M-46.8,1888.7h-45c-9.8,0-17.8-7.9-17.8-17.8v-45c0-9.8,7.9-17.8,17.8-17.8h45h21.4v80.4L-46.8,1888.7z"/>
<g>
	<rect x="-470.2" y="1837.2" style="fill:none;" width="321.2" height="37.4"/>
	<text transform="matrix(1 0 0 1 -397.0801 1857.917)" style="font-family:'Roboto-Regular'; font-size:27.6565px;">Administrador</text>
</g>
<g>
	<rect x="-470.2" y="1750.4" style="fill:none;" width="321.2" height="37.4"/>
	<text transform="matrix(1 0 0 1 -410.7676 1774.0049)" style="font-family:'Roboto-Bold'; font-size:31.4279px;">Administrador</text>
</g>
<g>
	<rect x="-29" y="1834.7" style="fill:none;" width="321.2" height="37.4"/>
	<text transform="matrix(1 0 0 1 -3.334 1855.4023)" style="font-family:'Roboto-Regular'; font-size:27.6565px;">Secretaría Académica</text>
</g>
<g>
	<rect x="-51.6" y="1752.9" style="fill:none;" width="321.2" height="37.4"/>
	<text transform="matrix(1 0 0 1 -46.5801 1776.5195)" style="font-family:'Roboto-Bold'; font-size:31.4279px;">Secretaría Académica</text>
</g>
<g>
	<rect x="363.3" y="1751.7" style="fill:none;" width="361.5" height="37.4"/>
	<text transform="matrix(1 0 0 1 378.5 1775.2617)" style="font-family:'Roboto-Bold'; font-size:31.4279px;">Coordinador de Carrera</text>
</g>
<path class="st5" d="M261.5,1639.1l351.3,0.6c11.2,0,20.3-9,20.3-20.1v-39.4c0-11.1-9.1-20.1-20.3-20.1l-350-0.2L261.5,1639.1z"/>
<path class="st6" d="M300.2,1639.8h-45c-9.8,0-17.8-7.9-17.8-17.8v-45c0-9.8,7.9-17.8,17.8-17.8h45h21.4v80.4L300.2,1639.8z"/>
<g>
	<rect x="318" y="1587" style="fill:none;" width="321.2" height="37.4"/>
	<text transform="matrix(1 0 0 1 338.2354 1607.751)" style="font-family:'Roboto-Bold'; font-size:27.6565px;">Calendario Académico</text>
</g>
<path class="st5" d="M-515.4,1991.1l351.3,0.6c11.2,0,20.3-9,20.3-20.1v-39.4c0-11.1-9.1-20.1-20.3-20.1l-350-0.2L-515.4,1991.1z"/>
<path class="st2" d="M-476.7,1991.7h-45c-9.8,0-17.8-7.9-17.8-17.8v-45c0-9.8,7.9-17.8,17.8-17.8h45h21.4v80.4L-476.7,1991.7z"/>
<g>
	<rect x="-474" y="1940.3" style="fill:none;" width="321.2" height="37.4"/>
	<text transform="matrix(1 0 0 1 -400.8516 1961)" style="font-family:'Roboto-Regular'; font-size:27.6565px;">Administrador</text>
</g>
<path class="st5" d="M-515.4,2094.2l351.3,0.6c11.2,0,20.3-9,20.3-20.1v-39.4c0-11.1-9.1-20.1-20.3-20.1l-350-0.2L-515.4,2094.2z"/>
<path class="st2" d="M-476.7,2094.8h-45c-9.8,0-17.8-7.9-17.8-17.8v-45c0-9.8,7.9-17.8,17.8-17.8h45h21.4v80.4L-476.7,2094.8z"/>
<g>
	<rect x="-474" y="2043.3" style="fill:none;" width="321.2" height="37.4"/>
	<text transform="matrix(1 0 0 1 -400.8516 2064.083)" style="font-family:'Roboto-Regular'; font-size:27.6565px;">Administrador</text>
</g>
<path class="st5" d="M-88,1993.6l351.3,0.6c11.2,0,20.3-9,20.3-20.1v-39.4c0-11.1-9.1-20.1-20.3-20.1l-350-0.2L-88,1993.6z"/>
<path class="st2" d="M-49.3,1994.3h-45c-9.8,0-17.8-7.9-17.8-17.8v-45c0-9.8,7.9-17.8,17.8-17.8h45h21.4v80.4L-49.3,1994.3z"/>
<g>
	<rect x="-31.5" y="1940.3" style="fill:none;" width="321.2" height="37.4"/>
	<text transform="matrix(1 0 0 1 -5.8477 1961)" style="font-family:'Roboto-Regular'; font-size:27.6565px;">Secretaría Académica</text>
</g>
<path class="st5" d="M-84.2,2092.9l351.3,0.6c11.2,0,20.3-9,20.3-20.1v-39.4c0-11.1-9.1-20.1-20.3-20.1l-350-0.2L-84.2,2092.9z"/>
<path class="st2" d="M-45.6,2093.6h-45c-9.8,0-17.8-7.9-17.8-17.8v-45c0-9.8,7.9-17.8,17.8-17.8h45h21.4v80.4L-45.6,2093.6z"/>
<g>
	<rect x="-27.7" y="2039.6" style="fill:none;" width="321.2" height="37.4"/>
	<text transform="matrix(1 0 0 1 -2.0762 2060.3125)" style="font-family:'Roboto-Regular'; font-size:27.6565px;">Secretaría Académica</text>
</g>
<path class="st5" d="M368.3,1886.8l351.3,0.6c11.2,0,20.3-9,20.3-20.1v-39.4c0-11.1-9.1-20.1-20.3-20.1l-350-0.2L368.3,1886.8z"/>
<path class="st2" d="M407,1887.4h-45c-9.8,0-17.8-7.9-17.8-17.8v-45c0-9.8,7.9-17.8,17.8-17.8h45h21.4v80.4L407,1887.4z"/>
<g>
	<rect x="424.9" y="1833.4" style="fill:none;" width="321.2" height="37.4"/>
	<text transform="matrix(1 0 0 1 450.4844 1854.1455)" style="font-family:'Roboto-Regular'; font-size:27.6565px;">Secretaría Académica</text>
</g>
<path class="st5" d="M365.8,1992.4l351.3,0.6c11.2,0,20.3-9,20.3-20.1v-39.4c0-11.1-9.1-20.1-20.3-20.1l-350-0.2L365.8,1992.4z"/>
<path class="st2" d="M404.5,1993h-45c-9.8,0-17.8-7.9-17.8-17.8v-45c0-9.8,7.9-17.8,17.8-17.8h45h21.4v80.4L404.5,1993z"/>
<g>
	<rect x="422.3" y="1939" style="fill:none;" width="321.2" height="37.4"/>
	<text transform="matrix(1 0 0 1 447.9707 1959.7432)" style="font-family:'Roboto-Regular'; font-size:27.6565px;">Secretaría Académica</text>
</g>
<path class="st5" d="M369.6,2091.7l351.3,0.6c11.2,0,20.3-9,20.3-20.1v-39.4c0-11.1-9.1-20.1-20.3-20.1l-350-0.2L369.6,2091.7z"/>
<path class="st2" d="M408.3,2092.3h-45c-9.8,0-17.8-7.9-17.8-17.8v-45c0-9.8,7.9-17.8,17.8-17.8h45h21.4v80.4L408.3,2092.3z"/>
<g>
	<rect x="426.1" y="2038.3" style="fill:none;" width="321.2" height="37.4"/>
	<text transform="matrix(1 0 0 1 451.7412 2059.0547)" style="font-family:'Roboto-Regular'; font-size:27.6565px;">Secretaría Académica</text>
</g>
<path class="st3" d="M-171.4,1599.1c0-10.7,8.7-19.4,19.4-19.4c10.7,0,19.4,8.7,19.4,19.3c0,10.8-8.7,19.5-19.4,19.5
	C-162.7,1618.5-171.4,1609.8-171.4,1599.1z M-134.7,1599.1c0-9.6-7.8-17.3-17.3-17.4c-9.6,0-17.4,7.8-17.4,17.4
	c0,9.5,7.8,17.4,17.3,17.4C-142.5,1616.4-134.7,1608.7-134.7,1599.1z"/>
<path class="st3" d="M-155.6,1608.3c-2.3,0-4.1-1.8-4.2-4c0-3.5-0.1-6.9,0-10.4c0.1-3.2,3.5-5.1,6.3-3.5c2.6,1.5,5.2,3,7.8,4.5
	c0.3,0.2,0.6,0.4,0.9,0.5c2.7,1.6,2.8,5.5,0.1,7.1c-3,1.8-6,3.5-9,5.2c-0.6,0.3-1.3,0.4-1.9,0.6
	C-155.6,1608.4-155.6,1608.3-155.6,1608.3z M-157.8,1599c0,1.7,0,3.4,0,5.1c0,1.7,1.7,2.7,3.2,1.9c0.4-0.2,0.7-0.4,1.1-0.6
	c2.5-1.4,5-2.9,7.5-4.3c1.6-1,1.6-3,0-3.9c-2.8-1.6-5.7-3.3-8.5-4.9c-1.6-0.9-3.3,0.1-3.3,1.9
	C-157.8,1595.8-157.8,1597.4-157.8,1599z"/>
<path class="st3" d="M267.3,1583.3c0-0.5,0-0.9,0-1.3c0-1.4,1.2-2.6,2.6-2.6c1.4,0,2.6,1.1,2.6,2.6c0,0.4,0,0.8,0,1.3
	c1.7,0,3.4,0,5.2,0c0-0.4,0-0.8,0-1.2c0-1.5,1.1-2.7,2.6-2.7c1.5,0,2.6,1.2,2.6,2.7c0,0.4,0,0.8,0,1.2c1.7,0,3.4,0,5.2,0
	c0-0.5,0-0.9,0-1.4c0-1.2,1-2.3,2.2-2.5c1.2-0.2,2.4,0.5,2.8,1.7c0.1,0.3,0.1,0.6,0.2,1c0,0.4,0,0.8,0,1.3c0.2,0,0.3,0,0.5,0
	c1.1,0,2.3-0.1,3.4,0.1c1.5,0.2,2.6,1.6,2.6,3.1c0,5.6,0,11.2,0,16.9c0,0.5-0.3,0.8-0.7,0.8c-0.4,0-0.6-0.3-0.6-0.8
	c0-3.5,0-6.9,0-10.4c0-0.2,0-0.3,0-0.5c-12.2,0-24.3,0-36.4,0c0,0.1,0,0.3,0,0.4c0,6.5,0,13,0,19.5c0,1.4,0.8,2.2,2.2,2.2
	c5.9,0,11.7,0,17.6,0c0.1,0,0.3,0,0.4,0c0.4,0,0.6,0.3,0.6,0.6c0,0.4-0.3,0.6-0.6,0.7c-0.1,0-0.2,0-0.3,0c-5.9,0-11.8,0-17.8,0
	c-2,0-3.4-1.4-3.4-3.4c0-8.6,0-17.1,0-25.7c0-2,1.4-3.4,3.4-3.4C265.2,1583.3,266.2,1583.3,267.3,1583.3z M272.5,1584.6
	c0,0.5,0,0.9,0,1.3c0,1.5-1.2,2.6-2.6,2.6c-1.4,0-2.6-1.1-2.6-2.6c0-0.4,0-0.8,0-1.2c-0.1,0-0.1,0-0.1,0c-1,0-2.1,0-3.1,0
	c-1.2,0-2,0.8-2,2c0,1.1,0,2.2,0,3.4c0,0.4,0,0.7,0,1.1c12.2,0,24.3,0,36.4,0c0-1.6,0-3.1,0-4.7c0-1-0.9-1.8-1.9-1.8
	c-0.6,0-1.2,0-1.8,0c-0.5,0-1,0-1.5,0c0,0.5,0,0.9,0,1.3c0,0.4-0.1,0.7-0.2,1.1c-0.5,1.1-1.7,1.8-2.8,1.5c-1.3-0.2-2.1-1.2-2.2-2.5
	c0-0.5,0-0.9,0-1.4c-1.8,0-3.5,0-5.2,0c0,0.4,0,0.8,0,1.2c0,1.6-1.1,2.7-2.6,2.7c-1.5,0-2.6-1.2-2.6-2.7c0-0.4,0-0.8,0-1.2
	C275.9,1584.6,274.2,1584.6,272.5,1584.6z M271.2,1584c0-0.6,0-1.3,0-1.9c0-0.8-0.6-1.4-1.3-1.4c-0.7,0-1.3,0.6-1.3,1.4
	c0,1.3,0,2.5,0,3.8c0,0.8,0.6,1.4,1.3,1.4c0.7,0,1.3-0.6,1.3-1.4C271.2,1585.2,271.2,1584.6,271.2,1584z M281.6,1583.9
	c0-0.6,0-1.3,0-1.9c0-0.8-0.6-1.3-1.3-1.3c-0.7,0-1.3,0.6-1.3,1.4c0,1.3,0,2.5,0,3.8c0,0.8,0.6,1.4,1.3,1.4c0.7,0,1.3-0.6,1.3-1.4
	C281.6,1585.2,281.6,1584.5,281.6,1583.9z M289.4,1583.9c0,0.6,0,1.2,0,1.9c0,0.8,0.6,1.4,1.3,1.4c0.7,0,1.3-0.6,1.3-1.4
	c0-1.3,0-2.5,0-3.8c0-0.8-0.6-1.4-1.3-1.4c-0.7,0-1.3,0.6-1.3,1.4C289.4,1582.7,289.4,1583.3,289.4,1583.9z"/>
<path class="st3" d="M291.4,1618.4c-4.7,0-8.5-3.8-8.5-8.5c0-4.6,3.8-8.4,8.5-8.4c4.6,0,8.4,3.8,8.4,8.4
	C299.8,1614.6,296,1618.4,291.4,1618.4z M291.4,1617.1c3.9,0,7.1-3.2,7.1-7.1c0-4-3.2-7.2-7.1-7.2c-4,0-7.2,3.2-7.2,7.2
	C284.2,1613.9,287.4,1617.1,291.4,1617.1z"/>
<path class="st3" d="M1036.6,661.2c-0.4,0-0.9,0-1.3,0c-0.7,0-1.3-0.6-1.3-1.3c0-0.6,0-1.3,0-2c0-0.7,0.5-1.3,1.3-1.3
	c0.9,0,1.8,0,2.6,0c0.7,0,1.3,0.6,1.3,1.3c0,0.7,0,1.3,0,2c0,0.7-0.6,1.3-1.3,1.3C1037.5,661.2,1037,661.2,1036.6,661.2z
	 M1037.9,659.9c0-0.7,0-1.3,0-1.9c-0.9,0-1.7,0-2.6,0c0,0.6,0,1.3,0,1.9C1036.2,659.9,1037,659.9,1037.9,659.9z"/>
<path class="st3" d="M1044.4,661.2c-0.4,0-0.9,0-1.3,0c-0.7,0-1.3-0.6-1.3-1.3c0-0.6,0-1.3,0-2c0-0.8,0.6-1.3,1.3-1.3
	c0.9,0,1.7,0,2.6,0c0.8,0,1.3,0.6,1.3,1.3c0,0.6,0,1.3,0,1.9c0,0.8-0.6,1.3-1.3,1.3C1045.2,661.2,1044.8,661.2,1044.4,661.2z
	 M1045.7,657.9c-0.9,0-1.7,0-2.6,0c0,0.7,0,1.3,0,1.9c0.9,0,1.7,0,2.6,0C1045.7,659.2,1045.7,658.6,1045.7,657.9z"/>
<path class="st3" d="M1052.2,656.6c0.4,0,0.9,0,1.3,0c0.7,0,1.3,0.6,1.3,1.3c0,0.7,0,1.3,0,2c0,0.7-0.6,1.3-1.3,1.3
	c-0.9,0-1.8,0-2.6,0c-0.7,0-1.3-0.6-1.3-1.3c0-0.7,0-1.4,0-2c0-0.7,0.6-1.2,1.3-1.2C1051.3,656.6,1051.8,656.6,1052.2,656.6z
	 M1053.5,659.9c0-0.7,0-1.3,0-1.9c-0.9,0-1.7,0-2.6,0c0,0.6,0,1.3,0,1.9C1051.8,659.9,1052.6,659.9,1053.5,659.9z"/>
<path class="st3" d="M1060,661.2c-0.4,0-0.9,0-1.3,0c-0.8,0-1.3-0.6-1.3-1.3c0-0.6,0-1.3,0-1.9c0-0.8,0.5-1.3,1.3-1.3
	c0.9,0,1.7,0,2.6,0c0.7,0,1.3,0.6,1.3,1.3c0,0.6,0,1.3,0,2c0,0.8-0.6,1.3-1.3,1.3C1060.9,661.2,1060.4,661.2,1060,661.2z
	 M1061.3,659.9c0-0.7,0-1.3,0-1.9c-0.9,0-1.7,0-2.5,0c0,0.6,0,1.3,0,1.9C1059.6,659.9,1060.4,659.9,1061.3,659.9z"/>
<rect x="-2031.4" y="1202.2" class="st7" width="1767.8" height="85.6"/>
<g>
	<rect x="-1158.1" y="768.7" style="fill:none;" width="747.1" height="37.3"/>
	<text transform="matrix(1 0 0 1 -1143.2129 797.0186)" style="font-family:'Roboto-Bold'; font-size:37.7134px;">Bienvenido Eliana Lisbeth Barreno Izurieta</text>
</g>
<g>
	<rect x="-1329.1" y="426.7" style="fill:none;" width="662.1" height="37.3"/>
	<text transform="matrix(1 0 0 1 -1197.9785 455.0186)" style="font-family:'Roboto-Bold'; font-size:37.7134px;">Sistema de Admisiones</text>
</g>
<rect x="-2032.3" y="295.3" class="st2" width="1767.3" height="85.6"/>
<text transform="matrix(1 0 0 1 -1328.1533 1255.0527)" style="font-family:'HelveticaNeueLT-67MdCn'; font-size:18.4143px;">Escuela Superior Politécnica de Chimborazo@2023</text>
<path class="st3" d="M-761.4,592.2c-0.4,0-0.9,0-1.3,0c-0.7,0-1.3-0.6-1.3-1.3c0-0.6,0-1.3,0-2c0-0.7,0.5-1.3,1.3-1.3
	c0.9,0,1.8,0,2.6,0c0.7,0,1.3,0.6,1.3,1.3c0,0.7,0,1.3,0,2c0,0.7-0.6,1.3-1.3,1.3C-760.5,592.2-761,592.2-761.4,592.2z
	 M-760.1,590.9c0-0.7,0-1.3,0-1.9c-0.9,0-1.7,0-2.6,0c0,0.6,0,1.3,0,1.9C-761.8,590.9-761,590.9-760.1,590.9z"/>
<path class="st3" d="M-753.6,592.2c-0.4,0-0.9,0-1.3,0c-0.7,0-1.3-0.6-1.3-1.3c0-0.6,0-1.3,0-2c0-0.8,0.6-1.3,1.3-1.3
	c0.9,0,1.7,0,2.6,0c0.8,0,1.3,0.6,1.3,1.3c0,0.6,0,1.3,0,1.9c0,0.8-0.6,1.3-1.3,1.3C-752.8,592.2-753.2,592.2-753.6,592.2z
	 M-752.3,588.9c-0.9,0-1.7,0-2.6,0c0,0.7,0,1.3,0,1.9c0.9,0,1.7,0,2.6,0C-752.3,590.2-752.3,589.6-752.3,588.9z"/>
<path class="st3" d="M-745.8,587.6c0.4,0,0.9,0,1.3,0c0.7,0,1.3,0.6,1.3,1.3c0,0.7,0,1.3,0,2c0,0.7-0.6,1.3-1.3,1.3
	c-0.9,0-1.8,0-2.6,0c-0.7,0-1.3-0.6-1.3-1.3c0-0.7,0-1.4,0-2c0-0.7,0.6-1.2,1.3-1.2C-746.7,587.6-746.2,587.6-745.8,587.6z
	 M-744.5,590.9c0-0.7,0-1.3,0-1.9c-0.9,0-1.7,0-2.6,0c0,0.6,0,1.3,0,1.9C-746.2,590.9-745.4,590.9-744.5,590.9z"/>
<path class="st3" d="M-738,592.2c-0.4,0-0.9,0-1.3,0c-0.8,0-1.3-0.6-1.3-1.3c0-0.6,0-1.3,0-1.9c0-0.8,0.5-1.3,1.3-1.3
	c0.9,0,1.7,0,2.6,0c0.7,0,1.3,0.6,1.3,1.3c0,0.6,0,1.3,0,2c0,0.8-0.6,1.3-1.3,1.3C-737.1,592.2-737.6,592.2-738,592.2z
	 M-736.7,590.9c0-0.7,0-1.3,0-1.9c-0.9,0-1.7,0-2.5,0c0,0.6,0,1.3,0,1.9C-738.4,590.9-737.6,590.9-736.7,590.9z"/>
<path class="st3" d="M268.6,1601.5c0.4,0,0.9,0,1.3,0c0.7,0,1.3,0.6,1.3,1.3c0,0.7,0,1.3,0,2c0,0.7-0.6,1.3-1.3,1.3
	c-0.9,0-1.8,0-2.6,0c-0.7,0-1.3-0.6-1.3-1.3c0-0.7,0-1.4,0-2c0-0.7,0.6-1.2,1.3-1.2C267.7,1601.5,268.1,1601.5,268.6,1601.5z
	 M267.3,1602.8c0,0.7,0,1.3,0,1.9c0.9,0,1.7,0,2.6,0c0-0.7,0-1.3,0-1.9C269,1602.8,268.2,1602.8,267.3,1602.8z"/>
<path class="st3" d="M276.4,1601.5c0.4,0,0.9,0,1.3,0c0.7,0,1.3,0.6,1.3,1.3c0,0.7,0,1.3,0,2c0,0.7-0.6,1.3-1.3,1.3
	c-0.9,0-1.8,0-2.6,0c-0.7,0-1.3-0.6-1.3-1.3c0-0.7,0-1.4,0-2c0-0.7,0.6-1.2,1.3-1.2C275.5,1601.5,276,1601.5,276.4,1601.5z
	 M277.7,1602.8c-0.9,0-1.7,0-2.6,0c0,0.7,0,1.3,0,1.9c0.9,0,1.7,0,2.6,0C277.7,1604.1,277.7,1603.4,277.7,1602.8z"/>
<path class="st3" d="M268.6,1611.9c-0.4,0-0.8,0-1.2,0c-0.8,0-1.4-0.5-1.4-1.3c0-0.6,0-1.2,0-1.9c0-0.8,0.5-1.3,1.3-1.3
	c0.8,0,1.7,0,2.5,0c0.8,0,1.3,0.5,1.3,1.3c0,0.6,0,1.3,0,1.9c0,0.8-0.6,1.3-1.3,1.3C269.4,1611.9,269,1611.9,268.6,1611.9z
	 M269.9,1610.6c0-0.7,0-1.3,0-1.9c-0.9,0-1.7,0-2.6,0c0,0.6,0,1.3,0,1.9C268.2,1610.6,269,1610.6,269.9,1610.6z"/>
<path class="st3" d="M276.4,1607.3c0.4,0,0.9,0,1.3,0c0.7,0,1.3,0.6,1.3,1.3c0,0.6,0,1.3,0,2c0,0.8-0.6,1.3-1.3,1.3
	c-0.9,0-1.7,0-2.6,0c-0.8,0-1.3-0.6-1.3-1.3c0-0.6,0-1.3,0-1.9c0-0.8,0.6-1.3,1.3-1.3C275.6,1607.3,276,1607.3,276.4,1607.3z
	 M277.7,1610.6c0-0.7,0-1.3,0-1.9c-0.9,0-1.7,0-2.5,0c0,0.6,0,1.3,0,1.9C276,1610.6,276.8,1610.6,277.7,1610.6z"/>
<path class="st3" d="M282.9,1602.8c0,0.7,0,1.3,0,1.9c0.1,0,0.2,0.1,0.3,0.1c0.3,0.1,0.4,0.4,0.4,0.7c-0.1,0.3-0.3,0.5-0.6,0.5
	c-0.6,0-1.3-0.5-1.3-1.2c0-0.7,0-1.4,0-2.1c0-0.7,0.6-1.2,1.2-1.2c0.9,0,1.7,0,2.6,0c0.4,0,0.7,0.3,0.7,0.6c0,0.4-0.3,0.7-0.7,0.7
	C284.6,1602.8,283.8,1602.8,282.9,1602.8z"/>
<path class="st3" d="M290.1,1612.3c0.6-0.6,1.1-1.1,1.6-1.6c1.1-1.1,2.2-2.2,3.3-3.3c0.4-0.4,0.7-0.4,1-0.1c0.3,0.3,0.2,0.6-0.1,1
	c-1.8,1.8-3.5,3.5-5.3,5.3c-0.4,0.4-0.7,0.4-1.1,0c-0.9-0.8-1.7-1.7-2.6-2.6c-0.3-0.4-0.4-0.7-0.1-1c0.3-0.3,0.7-0.3,1,0.1
	C288.6,1610.8,289.3,1611.5,290.1,1612.3z"/>
<path class="st3" d="M-71.8,1864.6c-0.3,0-0.5-0.2-0.5-0.4c0-0.3,0.2-0.5,0.5-0.5c0.2,0,0.5,0.2,0.5,0.4
	C-71.3,1864.3-71.6,1864.6-71.8,1864.6z"/>
<g>
	<path class="st3" d="M-75.2,1854.5c-0.4,0.5-0.5,1-0.6,1.5c-0.1,0.4-0.1,0.8-0.1,1.3c0,1.7,0,3.4,0,5.2c0,0.8,0.4,1.2,1.2,1.3
		c0.1,0,0.3,0,0.3,0.1c0.1,0.1,0.3,0.3,0.3,0.5c0,0.2-0.1,0.4-0.4,0.4c-0.9,0.1-2.1-0.5-2.3-1.7c0-0.2,0-0.5,0-0.7
		c0-1.8,0-3.7,0-5.5c0-1.3,0.4-2.4,1.3-3.4c0.1-0.1,0-0.6-0.2-0.7c-0.3-0.1-0.6-0.3-0.9-0.4c-0.1,0-0.3,0-0.3,0.1
		c-0.5,0.4-1,0.8-1.6,1.3c-0.4,0.3-0.7,0.3-1.1-0.1c-0.3-0.3-0.7-0.7-1-1c-0.5-0.5-0.4-1.1,0-1.6c0.4-0.4,0.7-0.9,1.1-1.4
		c0,0,0-0.2,0-0.2c-0.1-0.3-0.3-0.6-0.4-0.9c0-0.1-0.2-0.1-0.3-0.2c-0.8-0.2-1.7-0.3-2.5-0.5c-0.7-0.1-0.9-0.4-0.9-1.1
		c0-0.8,0-1.5,0-2.3c0-0.6,0.3-0.9,0.9-1.1c0.8-0.2,1.7-0.3,2.5-0.5c0.2,0,0.3-0.1,0.4-0.3c0-0.1,0.1-0.2,0.1-0.3
		c0.4-0.4,0.2-0.7-0.1-1.1c-0.4-0.4-0.7-0.8-1-1.2c-0.4-0.5-0.4-0.9,0.1-1.3c0.3-0.3,0.7-0.7,1-1c0.5-0.5,0.9-0.5,1.4-0.1
		c0.5,0.4,0.9,0.7,1.4,1.1c0.2,0.2,0.4,0.3,0.7,0.1c0,0,0,0,0.1,0c0.6-0.1,0.8-0.6,0.9-1.1c0.1-0.7,0.2-1.3,0.3-2
		c0.1-0.6,0.4-0.9,1.1-0.9c0.7,0,1.4,0,2.2,0c0.5,0,0.9,0.1,1.1,0.5c0.2-0.3,0.4-0.6,0.5-0.9c1.7-3.1,5.1-4.8,8.6-4.2
		c3.5,0.6,6.2,3.3,6.7,6.8c0.7,4.2-1.9,8.1-5.9,9.3c-0.4,0.1-0.7,0.1-1.1,0.2c-0.2,0-0.3,0.1-0.3,0.3c0,0.6-0.3,0.8-0.8,0.9
		c-0.5,0.1-0.9,0.2-1.4,0.3c0,0,0,0-0.1,0.1c0.1,0,0.3,0,0.4,0c1.7,0,3.4,0,5.1,0c2.2,0.1,4.3,0.8,6.1,2.2c1.9,1.4,3.2,3.2,3.6,5.6
		c0.1,0.4,0.1,0.9,0.1,1.3c0,1.8,0,3.5,0,5.3c0,1.2-0.9,2-1.9,2.1c-0.2,0-0.3,0-0.5,0c-3.2,0-6.5,0-9.7,0c-1.1,0-2.2,0-3.3,0
		c-1.1,0-2.1,0-3.2,0c-0.4,0-0.8,0-1.3,0c-0.4,0-0.6-0.1-0.6-0.4c0-0.3,0.2-0.5,0.6-0.5c1.5,0,3,0,4.5,0c4.3,0,8.6,0,12.9,0
		c0.3,0,0.7-0.1,1-0.2c0.3-0.1,0.5-0.4,0.5-0.7c0-2.1,0-4.1,0-6.2c-0.1-1.5-0.7-2.8-1.7-3.9c-1.6-1.9-3.8-2.9-6.2-3.3
		c-0.8-0.1-1.5-0.2-2.3-0.2c-1.9,0-3.8,0-5.6,0c-0.1,0-0.3,0.1-0.4,0.1c0,0.1,0,0.3,0.1,0.4c0.4,0.5,0.7,0.9,1.1,1.4
		c0.4,0.5,0.4,0.9-0.1,1.4c-0.3,0.3-0.6,0.6-1,1c-0.4,0.4-0.8,0.5-1.3,0.1c-0.5-0.4-0.9-0.7-1.4-1.1c-0.2-0.2-0.4-0.2-0.6,0
		c0,0-0.1,0.1-0.1,0.1c-0.6,0.1-0.8,0.6-0.9,1.2c-0.1,0.6-0.2,1.3-0.3,1.9c-0.1,0.6-0.4,0.9-1,0.9c-0.8,0-1.6,0-2.4,0
		c-0.6,0-0.9-0.3-1-0.9C-75.1,1855.2-75.2,1854.9-75.2,1854.5z M-62.1,1845.7c0.4-0.1,0.7-0.1,1-0.2c3.5-0.9,5.9-4.4,5.4-8
		c-0.4-3.1-2.7-5.5-5.7-6.2c-3-0.7-6.1,0.6-7.8,3.2c-0.3,0.4-0.5,0.8-0.7,1.2c-0.4,0.6-0.7,1.3-0.4,2c0,0,0,0.1,0,0.1
		c0,0.4,0.1,0.7,0.6,0.8c0.1,0,0.2,0.1,0.3,0.1c0.2,0.1,0.3,0.1,0.5,0c0.5-0.4,0.9-0.8,1.4-1.2c0.5-0.4,1-0.4,1.5,0.1
		c0.3,0.3,0.7,0.7,1,1c0.3,0.3,0.3,0.8,0.1,1.1c-0.3,0.4-0.7,0.9-1,1.2c-0.4,0.4-0.5,0.7-0.1,1.2c0.1,0.1,0.1,0.3,0.2,0.4
		c0.1,0.1,0.2,0.3,0.4,0.3c0.8,0.2,1.7,0.3,2.5,0.5c0.6,0.1,0.9,0.4,0.9,1C-62.1,1844.8-62.1,1845.2-62.1,1845.7z M-65.6,1851.6
		c-0.5-0.6-1-1.2-1.5-1.8c-0.2-0.3-0.2-0.5-0.1-0.8c0.2-0.4,0.4-0.8,0.6-1.2c0.1-0.3,0.3-0.4,0.6-0.5c0.9-0.2,1.8-0.3,2.7-0.5
		c0.2,0,0.3-0.1,0.3-0.3c0-0.7,0-1.3,0-2c0-0.2-0.1-0.3-0.3-0.4c-0.9-0.2-1.7-0.3-2.6-0.5c-0.3-0.1-0.5-0.2-0.7-0.5
		c-0.1-0.4-0.3-0.7-0.5-1.1c-0.3-0.5-0.3-0.6,0.1-1c0.4-0.5,0.8-1,1.2-1.5c0.1-0.1,0.2-0.3,0.1-0.4c-0.2-0.3-0.5-0.6-0.8-0.9
		c-0.1-0.1-0.2-0.1-0.3,0c-0.6,0.5-1.2,1-1.8,1.5c-0.2,0.2-0.5,0.2-0.7,0.1c-0.4-0.2-0.8-0.4-1.2-0.6c-0.2-0.1-0.4-0.3-0.4-0.5
		c-0.2-0.8-0.3-1.6-0.4-2.3c-0.1-0.9,0-0.7-0.8-0.7c-0.1,0-0.2,0-0.2,0c-0.5,0-1.1,0-1.6,0c-0.2,1.1-0.4,2.1-0.6,3.1
		c0,0.2-0.2,0.4-0.4,0.5c-0.4,0.2-0.9,0.4-1.3,0.7c-0.3,0.1-0.5,0.1-0.7-0.1c-0.5-0.4-0.9-0.8-1.4-1.2c-0.2-0.1-0.3-0.3-0.6-0.4
		c-0.3,0.3-0.5,0.6-0.8,0.9c-0.2,0.2-0.1,0.3,0,0.4c0.5,0.5,0.9,1.1,1.4,1.6c0.2,0.3,0.3,0.5,0.1,0.8c-0.2,0.4-0.4,0.7-0.6,1.1
		c-0.1,0.3-0.3,0.5-0.6,0.5c-0.9,0.2-1.8,0.3-2.7,0.5c-0.2,0-0.3,0.1-0.3,0.3c0,0.7,0,1.3,0,2c0,0.2,0.1,0.3,0.3,0.3
		c0.9,0.2,1.8,0.3,2.8,0.5c0.3,0,0.4,0.2,0.5,0.4c0.2,0.4,0.4,0.8,0.6,1.2c0.2,0.3,0.2,0.5,0,0.8c-0.5,0.5-0.9,1-1.3,1.6
		c-0.2,0.2-0.2,0.4,0,0.6c0.3,0.2,0.6,0.5,0.9,0.8c0.3-0.3,0.6-0.5,1-0.7c0.4-0.3,0.7-0.6,1.1-0.8c0.1-0.1,0.3-0.1,0.4-0.1
		c0.5,0.2,0.9,0.5,1.4,0.7c0.3,0.1,0.5,0.4,0.5,0.7c0.1,0.9,0.3,1.7,0.5,2.6c0,0.2,0.1,0.3,0.3,0.3c0.6,0,1.3,0,1.9,0
		c0.3,0,0.4-0.1,0.4-0.4c0.1-0.9,0.3-1.8,0.5-2.7c0.1-0.3,0.2-0.5,0.5-0.6c0.4-0.2,0.8-0.4,1.2-0.6c0.4-0.2,0.5-0.3,0.9,0.1
		c0.6,0.5,1.2,1,1.7,1.4C-66.3,1852.4-66,1852-65.6,1851.6z"/>
	<path class="st3" d="M-72.8,1840.4c2.9,0,5.2,2.4,5.2,5.2c0,2.9-2.2,5.2-5.1,5.2c-3.3,0-5.4-2.4-5.4-5.2
		C-78.1,1842.7-75.7,1840.4-72.8,1840.4z M-72.8,1849.9c2.4,0,4.3-1.9,4.3-4.3c0-2.4-2-4.3-4.4-4.3c-2.3,0-4.3,2-4.3,4.3
		C-77.1,1848-75.2,1849.9-72.8,1849.9z"/>
</g>
<g>
	<path class="st3" d="M-506.2,1854.5c-0.4,0.5-0.5,1-0.6,1.5c-0.1,0.4-0.1,0.8-0.1,1.3c0,1.7,0,3.4,0,5.2c0,0.8,0.4,1.2,1.2,1.3
		c0.1,0,0.3,0,0.3,0.1c0.1,0.1,0.3,0.3,0.3,0.5c0,0.2-0.1,0.4-0.4,0.4c-0.9,0.1-2.1-0.5-2.3-1.7c0-0.2,0-0.5,0-0.7
		c0-1.8,0-3.7,0-5.5c0-1.3,0.4-2.4,1.3-3.4c0.1-0.1,0-0.6-0.2-0.7c-0.3-0.1-0.6-0.3-0.9-0.4c-0.1,0-0.3,0-0.3,0.1
		c-0.5,0.4-1,0.8-1.6,1.3c-0.4,0.3-0.7,0.3-1.1-0.1c-0.3-0.3-0.7-0.7-1-1c-0.5-0.5-0.4-1.1,0-1.6c0.4-0.4,0.7-0.9,1.1-1.4
		c0,0,0-0.2,0-0.2c-0.1-0.3-0.3-0.6-0.4-0.9c0-0.1-0.2-0.1-0.3-0.2c-0.8-0.2-1.7-0.3-2.5-0.5c-0.7-0.1-0.9-0.4-0.9-1.1
		c0-0.8,0-1.5,0-2.3c0-0.6,0.3-0.9,0.9-1.1c0.8-0.2,1.7-0.3,2.5-0.5c0.2,0,0.3-0.1,0.4-0.3c0-0.1,0.1-0.2,0.1-0.3
		c0.4-0.4,0.2-0.7-0.1-1.1c-0.4-0.4-0.7-0.8-1-1.2c-0.4-0.5-0.4-0.9,0.1-1.3c0.3-0.3,0.7-0.7,1-1c0.5-0.5,0.9-0.5,1.4-0.1
		c0.5,0.4,0.9,0.7,1.4,1.1c0.2,0.2,0.4,0.3,0.7,0.1c0,0,0,0,0.1,0c0.6-0.1,0.8-0.6,0.9-1.1c0.1-0.7,0.2-1.3,0.3-2
		c0.1-0.6,0.4-0.9,1.1-0.9c0.7,0,1.4,0,2.2,0c0.5,0,0.9,0.1,1.1,0.5c0.2-0.3,0.4-0.6,0.5-0.9c1.7-3.1,5.1-4.8,8.6-4.2
		c3.5,0.6,6.2,3.3,6.7,6.8c0.7,4.2-1.9,8.1-5.9,9.3c-0.4,0.1-0.7,0.1-1.1,0.2c-0.2,0-0.3,0.1-0.3,0.3c0,0.6-0.3,0.8-0.8,0.9
		c-0.5,0.1-0.9,0.2-1.4,0.3c0,0,0,0-0.1,0.1c0.1,0,0.3,0,0.4,0c1.7,0,3.4,0,5.1,0c2.2,0.1,4.3,0.8,6.1,2.2c1.9,1.4,3.2,3.2,3.6,5.6
		c0.1,0.4,0.1,0.9,0.1,1.3c0,1.8,0,3.5,0,5.3c0,1.2-0.9,2-1.9,2.1c-0.2,0-0.3,0-0.5,0c-3.2,0-6.5,0-9.7,0c-1.1,0-2.2,0-3.3,0
		c-1.1,0-2.1,0-3.2,0c-0.4,0-0.8,0-1.3,0c-0.4,0-0.6-0.1-0.6-0.4c0-0.3,0.2-0.5,0.6-0.5c1.5,0,3,0,4.5,0c4.3,0,8.6,0,12.9,0
		c0.3,0,0.7-0.1,1-0.2c0.3-0.1,0.5-0.4,0.5-0.7c0-2.1,0-4.1,0-6.2c-0.1-1.5-0.7-2.8-1.7-3.9c-1.6-1.9-3.8-2.9-6.2-3.3
		c-0.8-0.1-1.5-0.2-2.3-0.2c-1.9,0-3.8,0-5.6,0c-0.1,0-0.3,0.1-0.4,0.1c0,0.1,0,0.3,0.1,0.4c0.4,0.5,0.7,0.9,1.1,1.4
		c0.4,0.5,0.4,0.9-0.1,1.4c-0.3,0.3-0.6,0.6-1,1c-0.4,0.4-0.8,0.5-1.3,0.1c-0.5-0.4-0.9-0.7-1.4-1.1c-0.2-0.2-0.4-0.2-0.6,0
		c0,0-0.1,0.1-0.1,0.1c-0.6,0.1-0.8,0.6-0.9,1.2c-0.1,0.6-0.2,1.3-0.3,1.9c-0.1,0.6-0.4,0.9-1,0.9c-0.8,0-1.6,0-2.4,0
		c-0.6,0-0.9-0.3-1-0.9C-506.1,1855.2-506.2,1854.9-506.2,1854.5z M-493.1,1845.7c0.4-0.1,0.7-0.1,1-0.2c3.5-0.9,5.9-4.4,5.4-8
		c-0.4-3.1-2.7-5.5-5.7-6.2c-3-0.7-6.1,0.6-7.8,3.2c-0.3,0.4-0.5,0.8-0.7,1.2c-0.4,0.6-0.7,1.3-0.4,2c0,0,0,0.1,0,0.1
		c0,0.4,0.1,0.7,0.6,0.8c0.1,0,0.2,0.1,0.3,0.1c0.2,0.1,0.3,0.1,0.5,0c0.5-0.4,0.9-0.8,1.4-1.2c0.5-0.4,1-0.4,1.5,0.1
		c0.3,0.3,0.7,0.7,1,1c0.3,0.3,0.3,0.8,0.1,1.1c-0.3,0.4-0.7,0.9-1,1.2c-0.4,0.4-0.5,0.7-0.1,1.2c0.1,0.1,0.1,0.3,0.2,0.4
		c0.1,0.1,0.2,0.3,0.4,0.3c0.8,0.2,1.7,0.3,2.5,0.5c0.6,0.1,0.9,0.4,0.9,1C-493.1,1844.8-493.1,1845.2-493.1,1845.7z M-496.6,1851.6
		c-0.5-0.6-1-1.2-1.5-1.8c-0.2-0.3-0.2-0.5-0.1-0.8c0.2-0.4,0.4-0.8,0.6-1.2c0.1-0.3,0.3-0.4,0.6-0.5c0.9-0.2,1.8-0.3,2.7-0.5
		c0.2,0,0.3-0.1,0.3-0.3c0-0.7,0-1.3,0-2c0-0.2-0.1-0.3-0.3-0.4c-0.9-0.2-1.7-0.3-2.6-0.5c-0.3-0.1-0.5-0.2-0.7-0.5
		c-0.1-0.4-0.3-0.7-0.5-1.1c-0.3-0.5-0.3-0.6,0.1-1c0.4-0.5,0.8-1,1.2-1.5c0.1-0.1,0.2-0.3,0.1-0.4c-0.2-0.3-0.5-0.6-0.8-0.9
		c-0.1-0.1-0.2-0.1-0.3,0c-0.6,0.5-1.2,1-1.8,1.5c-0.2,0.2-0.5,0.2-0.7,0.1c-0.4-0.2-0.8-0.4-1.2-0.6c-0.2-0.1-0.4-0.3-0.4-0.5
		c-0.2-0.8-0.3-1.6-0.4-2.3c-0.1-0.9,0-0.7-0.8-0.7c-0.1,0-0.2,0-0.2,0c-0.5,0-1.1,0-1.6,0c-0.2,1.1-0.4,2.1-0.6,3.1
		c0,0.2-0.2,0.4-0.4,0.5c-0.4,0.2-0.9,0.4-1.3,0.7c-0.3,0.1-0.5,0.1-0.7-0.1c-0.5-0.4-0.9-0.8-1.4-1.2c-0.2-0.1-0.3-0.3-0.6-0.4
		c-0.3,0.3-0.5,0.6-0.8,0.9c-0.2,0.2-0.1,0.3,0,0.4c0.5,0.5,0.9,1.1,1.4,1.6c0.2,0.3,0.3,0.5,0.1,0.8c-0.2,0.4-0.4,0.7-0.6,1.1
		c-0.1,0.3-0.3,0.5-0.6,0.5c-0.9,0.2-1.8,0.3-2.7,0.5c-0.2,0-0.3,0.1-0.3,0.3c0,0.7,0,1.3,0,2c0,0.2,0.1,0.3,0.3,0.3
		c0.9,0.2,1.8,0.3,2.8,0.5c0.3,0,0.4,0.2,0.5,0.4c0.2,0.4,0.4,0.8,0.6,1.2c0.2,0.3,0.2,0.5,0,0.8c-0.5,0.5-0.9,1-1.3,1.6
		c-0.2,0.2-0.2,0.4,0,0.6c0.3,0.2,0.6,0.5,0.9,0.8c0.3-0.3,0.6-0.5,1-0.7c0.4-0.3,0.7-0.6,1.1-0.8c0.1-0.1,0.3-0.1,0.4-0.1
		c0.5,0.2,0.9,0.5,1.4,0.7c0.3,0.1,0.5,0.4,0.5,0.7c0.1,0.9,0.3,1.7,0.5,2.6c0,0.2,0.1,0.3,0.3,0.3c0.6,0,1.3,0,1.9,0
		c0.3,0,0.4-0.1,0.4-0.4c0.1-0.9,0.3-1.8,0.5-2.7c0.1-0.3,0.2-0.5,0.5-0.6c0.4-0.2,0.8-0.4,1.2-0.6c0.4-0.2,0.5-0.3,0.9,0.1
		c0.6,0.5,1.2,1,1.7,1.4C-497.3,1852.4-497,1852-496.6,1851.6z"/>
	<path class="st3" d="M-503.8,1840.4c2.9,0,5.2,2.4,5.2,5.2c0,2.9-2.2,5.2-5.1,5.2c-3.3,0-5.4-2.4-5.4-5.2
		C-509.1,1842.7-506.7,1840.4-503.8,1840.4z M-503.8,1849.9c2.4,0,4.3-1.9,4.3-4.3c0-2.4-2-4.3-4.4-4.3c-2.3,0-4.3,2-4.3,4.3
		C-508.1,1848-506.2,1849.9-503.8,1849.9z"/>
</g>
<g>
	<path class="st3" d="M-506.2,1958.5c-0.4,0.5-0.5,1-0.6,1.5c-0.1,0.4-0.1,0.8-0.1,1.3c0,1.7,0,3.4,0,5.2c0,0.8,0.4,1.2,1.2,1.3
		c0.1,0,0.3,0,0.3,0.1c0.1,0.1,0.3,0.3,0.3,0.5c0,0.2-0.1,0.4-0.4,0.4c-0.9,0.1-2.1-0.5-2.3-1.7c0-0.2,0-0.5,0-0.7
		c0-1.8,0-3.7,0-5.5c0-1.3,0.4-2.4,1.3-3.4c0.1-0.1,0-0.6-0.2-0.7c-0.3-0.1-0.6-0.3-0.9-0.4c-0.1,0-0.3,0-0.3,0.1
		c-0.5,0.4-1,0.8-1.6,1.3c-0.4,0.3-0.7,0.3-1.1-0.1c-0.3-0.3-0.7-0.7-1-1c-0.5-0.5-0.4-1.1,0-1.6c0.4-0.4,0.7-0.9,1.1-1.4
		c0,0,0-0.2,0-0.2c-0.1-0.3-0.3-0.6-0.4-0.9c0-0.1-0.2-0.1-0.3-0.2c-0.8-0.2-1.7-0.3-2.5-0.5c-0.7-0.1-0.9-0.4-0.9-1.1
		c0-0.8,0-1.5,0-2.3c0-0.6,0.3-0.9,0.9-1.1c0.8-0.2,1.7-0.3,2.5-0.5c0.2,0,0.3-0.1,0.4-0.3c0-0.1,0.1-0.2,0.1-0.3
		c0.4-0.4,0.2-0.7-0.1-1.1c-0.4-0.4-0.7-0.8-1-1.2c-0.4-0.5-0.4-0.9,0.1-1.3c0.3-0.3,0.7-0.7,1-1c0.5-0.5,0.9-0.5,1.4-0.1
		c0.5,0.4,0.9,0.7,1.4,1.1c0.2,0.2,0.4,0.3,0.7,0.1c0,0,0,0,0.1,0c0.6-0.1,0.8-0.6,0.9-1.1c0.1-0.7,0.2-1.3,0.3-2
		c0.1-0.6,0.4-0.9,1.1-0.9c0.7,0,1.4,0,2.2,0c0.5,0,0.9,0.1,1.1,0.5c0.2-0.3,0.4-0.6,0.5-0.9c1.7-3.1,5.1-4.8,8.6-4.2
		c3.5,0.6,6.2,3.3,6.7,6.8c0.7,4.2-1.9,8.1-5.9,9.3c-0.4,0.1-0.7,0.1-1.1,0.2c-0.2,0-0.3,0.1-0.3,0.3c0,0.6-0.3,0.8-0.8,0.9
		c-0.5,0.1-0.9,0.2-1.4,0.3c0,0,0,0-0.1,0.1c0.1,0,0.3,0,0.4,0c1.7,0,3.4,0,5.1,0c2.2,0.1,4.3,0.8,6.1,2.2c1.9,1.4,3.2,3.2,3.6,5.6
		c0.1,0.4,0.1,0.9,0.1,1.3c0,1.8,0,3.5,0,5.3c0,1.2-0.9,2-1.9,2.1c-0.2,0-0.3,0-0.5,0c-3.2,0-6.5,0-9.7,0c-1.1,0-2.2,0-3.3,0
		c-1.1,0-2.1,0-3.2,0c-0.4,0-0.8,0-1.3,0c-0.4,0-0.6-0.1-0.6-0.4c0-0.3,0.2-0.5,0.6-0.5c1.5,0,3,0,4.5,0c4.3,0,8.6,0,12.9,0
		c0.3,0,0.7-0.1,1-0.2c0.3-0.1,0.5-0.4,0.5-0.7c0-2.1,0-4.1,0-6.2c-0.1-1.5-0.7-2.8-1.7-3.9c-1.6-1.9-3.8-2.9-6.2-3.3
		c-0.8-0.1-1.5-0.2-2.3-0.2c-1.9,0-3.8,0-5.6,0c-0.1,0-0.3,0.1-0.4,0.1c0,0.1,0,0.3,0.1,0.4c0.4,0.5,0.7,0.9,1.1,1.4
		c0.4,0.5,0.4,0.9-0.1,1.4c-0.3,0.3-0.6,0.6-1,1c-0.4,0.4-0.8,0.5-1.3,0.1c-0.5-0.4-0.9-0.7-1.4-1.1c-0.2-0.2-0.4-0.2-0.6,0
		c0,0-0.1,0.1-0.1,0.1c-0.6,0.1-0.8,0.6-0.9,1.2c-0.1,0.6-0.2,1.3-0.3,1.9c-0.1,0.6-0.4,0.9-1,0.9c-0.8,0-1.6,0-2.4,0
		c-0.6,0-0.9-0.3-1-0.9C-506.1,1959.2-506.2,1958.9-506.2,1958.5z M-493.1,1949.7c0.4-0.1,0.7-0.1,1-0.2c3.5-0.9,5.9-4.4,5.4-8
		c-0.4-3.1-2.7-5.5-5.7-6.2c-3-0.7-6.1,0.6-7.8,3.2c-0.3,0.4-0.5,0.8-0.7,1.2c-0.4,0.6-0.7,1.3-0.4,2c0,0,0,0.1,0,0.1
		c0,0.4,0.1,0.7,0.6,0.8c0.1,0,0.2,0.1,0.3,0.1c0.2,0.1,0.3,0.1,0.5,0c0.5-0.4,0.9-0.8,1.4-1.2c0.5-0.4,1-0.4,1.5,0.1
		c0.3,0.3,0.7,0.7,1,1c0.3,0.3,0.3,0.8,0.1,1.1c-0.3,0.4-0.7,0.9-1,1.2c-0.4,0.4-0.5,0.7-0.1,1.2c0.1,0.1,0.1,0.3,0.2,0.4
		c0.1,0.1,0.2,0.3,0.4,0.3c0.8,0.2,1.7,0.3,2.5,0.5c0.6,0.1,0.9,0.4,0.9,1C-493.1,1948.8-493.1,1949.2-493.1,1949.7z M-496.6,1955.6
		c-0.5-0.6-1-1.2-1.5-1.8c-0.2-0.3-0.2-0.5-0.1-0.8c0.2-0.4,0.4-0.8,0.6-1.2c0.1-0.3,0.3-0.4,0.6-0.5c0.9-0.2,1.8-0.3,2.7-0.5
		c0.2,0,0.3-0.1,0.3-0.3c0-0.7,0-1.3,0-2c0-0.2-0.1-0.3-0.3-0.4c-0.9-0.2-1.7-0.3-2.6-0.5c-0.3-0.1-0.5-0.2-0.7-0.5
		c-0.1-0.4-0.3-0.7-0.5-1.1c-0.3-0.5-0.3-0.6,0.1-1c0.4-0.5,0.8-1,1.2-1.5c0.1-0.1,0.2-0.3,0.1-0.4c-0.2-0.3-0.5-0.6-0.8-0.9
		c-0.1-0.1-0.2-0.1-0.3,0c-0.6,0.5-1.2,1-1.8,1.5c-0.2,0.2-0.5,0.2-0.7,0.1c-0.4-0.2-0.8-0.4-1.2-0.6c-0.2-0.1-0.4-0.3-0.4-0.5
		c-0.2-0.8-0.3-1.6-0.4-2.3c-0.1-0.9,0-0.7-0.8-0.7c-0.1,0-0.2,0-0.2,0c-0.5,0-1.1,0-1.6,0c-0.2,1.1-0.4,2.1-0.6,3.1
		c0,0.2-0.2,0.4-0.4,0.5c-0.4,0.2-0.9,0.4-1.3,0.7c-0.3,0.1-0.5,0.1-0.7-0.1c-0.5-0.4-0.9-0.8-1.4-1.2c-0.2-0.1-0.3-0.3-0.6-0.4
		c-0.3,0.3-0.5,0.6-0.8,0.9c-0.2,0.2-0.1,0.3,0,0.4c0.5,0.5,0.9,1.1,1.4,1.6c0.2,0.3,0.3,0.5,0.1,0.8c-0.2,0.4-0.4,0.7-0.6,1.1
		c-0.1,0.3-0.3,0.5-0.6,0.5c-0.9,0.2-1.8,0.3-2.7,0.5c-0.2,0-0.3,0.1-0.3,0.3c0,0.7,0,1.3,0,2c0,0.2,0.1,0.3,0.3,0.3
		c0.9,0.2,1.8,0.3,2.8,0.5c0.3,0,0.4,0.2,0.5,0.4c0.2,0.4,0.4,0.8,0.6,1.2c0.2,0.3,0.2,0.5,0,0.8c-0.5,0.5-0.9,1-1.3,1.6
		c-0.2,0.2-0.2,0.4,0,0.6c0.3,0.2,0.6,0.5,0.9,0.8c0.3-0.3,0.6-0.5,1-0.7c0.4-0.3,0.7-0.6,1.1-0.8c0.1-0.1,0.3-0.1,0.4-0.1
		c0.5,0.2,0.9,0.5,1.4,0.7c0.3,0.1,0.5,0.4,0.5,0.7c0.1,0.9,0.3,1.7,0.5,2.6c0,0.2,0.1,0.3,0.3,0.3c0.6,0,1.3,0,1.9,0
		c0.3,0,0.4-0.1,0.4-0.4c0.1-0.9,0.3-1.8,0.5-2.7c0.1-0.3,0.2-0.5,0.5-0.6c0.4-0.2,0.8-0.4,1.2-0.6c0.4-0.2,0.5-0.3,0.9,0.1
		c0.6,0.5,1.2,1,1.7,1.4C-497.3,1956.4-497,1956-496.6,1955.6z"/>
	<path class="st3" d="M-503.8,1944.4c2.9,0,5.2,2.4,5.2,5.2c0,2.9-2.2,5.2-5.1,5.2c-3.3,0-5.4-2.4-5.4-5.2
		C-509.1,1946.7-506.7,1944.4-503.8,1944.4z M-503.8,1953.9c2.4,0,4.3-1.9,4.3-4.3c0-2.4-2-4.3-4.4-4.3c-2.3,0-4.3,2-4.3,4.3
		C-508.1,1952-506.2,1953.9-503.8,1953.9z"/>
</g>
<g>
	<path class="st3" d="M-510.2,2060.5c-0.4,0.5-0.5,1-0.6,1.5c-0.1,0.4-0.1,0.8-0.1,1.3c0,1.7,0,3.4,0,5.2c0,0.8,0.4,1.2,1.2,1.3
		c0.1,0,0.3,0,0.3,0.1c0.1,0.1,0.3,0.3,0.3,0.5c0,0.2-0.1,0.4-0.4,0.4c-0.9,0.1-2.1-0.5-2.3-1.7c0-0.2,0-0.5,0-0.7
		c0-1.8,0-3.7,0-5.5c0-1.3,0.4-2.4,1.3-3.4c0.1-0.1,0-0.6-0.2-0.7c-0.3-0.1-0.6-0.3-0.9-0.4c-0.1,0-0.3,0-0.3,0.1
		c-0.5,0.4-1,0.8-1.6,1.3c-0.4,0.3-0.7,0.3-1.1-0.1c-0.3-0.3-0.7-0.7-1-1c-0.5-0.5-0.4-1.1,0-1.6c0.4-0.4,0.7-0.9,1.1-1.4
		c0,0,0-0.2,0-0.2c-0.1-0.3-0.3-0.6-0.4-0.9c0-0.1-0.2-0.1-0.3-0.2c-0.8-0.2-1.7-0.3-2.5-0.5c-0.7-0.1-0.9-0.4-0.9-1.1
		c0-0.8,0-1.5,0-2.3c0-0.6,0.3-0.9,0.9-1.1c0.8-0.2,1.7-0.3,2.5-0.5c0.2,0,0.3-0.1,0.4-0.3c0-0.1,0.1-0.2,0.1-0.3
		c0.4-0.4,0.2-0.7-0.1-1.1c-0.4-0.4-0.7-0.8-1-1.2c-0.4-0.5-0.4-0.9,0.1-1.3c0.3-0.3,0.7-0.7,1-1c0.5-0.5,0.9-0.5,1.4-0.1
		c0.5,0.4,0.9,0.7,1.4,1.1c0.2,0.2,0.4,0.3,0.7,0.1c0,0,0,0,0.1,0c0.6-0.1,0.8-0.6,0.9-1.1c0.1-0.7,0.2-1.3,0.3-2
		c0.1-0.6,0.4-0.9,1.1-0.9c0.7,0,1.4,0,2.2,0c0.5,0,0.9,0.1,1.1,0.5c0.2-0.3,0.4-0.6,0.5-0.9c1.7-3.1,5.1-4.8,8.6-4.2
		c3.5,0.6,6.2,3.3,6.7,6.8c0.7,4.2-1.9,8.1-5.9,9.3c-0.4,0.1-0.7,0.1-1.1,0.2c-0.2,0-0.3,0.1-0.3,0.3c0,0.6-0.3,0.8-0.8,0.9
		c-0.5,0.1-0.9,0.2-1.4,0.3c0,0,0,0-0.1,0.1c0.1,0,0.3,0,0.4,0c1.7,0,3.4,0,5.1,0c2.2,0.1,4.3,0.8,6.1,2.2c1.9,1.4,3.2,3.2,3.6,5.6
		c0.1,0.4,0.1,0.9,0.1,1.3c0,1.8,0,3.5,0,5.3c0,1.2-0.9,2-1.9,2.1c-0.2,0-0.3,0-0.5,0c-3.2,0-6.5,0-9.7,0c-1.1,0-2.2,0-3.3,0
		c-1.1,0-2.1,0-3.2,0c-0.4,0-0.8,0-1.3,0c-0.4,0-0.6-0.1-0.6-0.4c0-0.3,0.2-0.5,0.6-0.5c1.5,0,3,0,4.5,0c4.3,0,8.6,0,12.9,0
		c0.3,0,0.7-0.1,1-0.2c0.3-0.1,0.5-0.4,0.5-0.7c0-2.1,0-4.1,0-6.2c-0.1-1.5-0.7-2.8-1.7-3.9c-1.6-1.9-3.8-2.9-6.2-3.3
		c-0.8-0.1-1.5-0.2-2.3-0.2c-1.9,0-3.8,0-5.6,0c-0.1,0-0.3,0.1-0.4,0.1c0,0.1,0,0.3,0.1,0.4c0.4,0.5,0.7,0.9,1.1,1.4
		c0.4,0.5,0.4,0.9-0.1,1.4c-0.3,0.3-0.6,0.6-1,1c-0.4,0.4-0.8,0.5-1.3,0.1c-0.5-0.4-0.9-0.7-1.4-1.1c-0.2-0.2-0.4-0.2-0.6,0
		c0,0-0.1,0.1-0.1,0.1c-0.6,0.1-0.8,0.6-0.9,1.2c-0.1,0.6-0.2,1.3-0.3,1.9c-0.1,0.6-0.4,0.9-1,0.9c-0.8,0-1.6,0-2.4,0
		c-0.6,0-0.9-0.3-1-0.9C-510.1,2061.2-510.2,2060.9-510.2,2060.5z M-497.1,2051.7c0.4-0.1,0.7-0.1,1-0.2c3.5-0.9,5.9-4.4,5.4-8
		c-0.4-3.1-2.7-5.5-5.7-6.2c-3-0.7-6.1,0.6-7.8,3.2c-0.3,0.4-0.5,0.8-0.7,1.2c-0.4,0.6-0.7,1.3-0.4,2c0,0,0,0.1,0,0.1
		c0,0.4,0.1,0.7,0.6,0.8c0.1,0,0.2,0.1,0.3,0.1c0.2,0.1,0.3,0.1,0.5,0c0.5-0.4,0.9-0.8,1.4-1.2c0.5-0.4,1-0.4,1.5,0.1
		c0.3,0.3,0.7,0.7,1,1c0.3,0.3,0.3,0.8,0.1,1.1c-0.3,0.4-0.7,0.9-1,1.2c-0.4,0.4-0.5,0.7-0.1,1.2c0.1,0.1,0.1,0.3,0.2,0.4
		c0.1,0.1,0.2,0.3,0.4,0.3c0.8,0.2,1.7,0.3,2.5,0.5c0.6,0.1,0.9,0.4,0.9,1C-497.1,2050.8-497.1,2051.2-497.1,2051.7z M-500.6,2057.6
		c-0.5-0.6-1-1.2-1.5-1.8c-0.2-0.3-0.2-0.5-0.1-0.8c0.2-0.4,0.4-0.8,0.6-1.2c0.1-0.3,0.3-0.4,0.6-0.5c0.9-0.2,1.8-0.3,2.7-0.5
		c0.2,0,0.3-0.1,0.3-0.3c0-0.7,0-1.3,0-2c0-0.2-0.1-0.3-0.3-0.4c-0.9-0.2-1.7-0.3-2.6-0.5c-0.3-0.1-0.5-0.2-0.7-0.5
		c-0.1-0.4-0.3-0.7-0.5-1.1c-0.3-0.5-0.3-0.6,0.1-1c0.4-0.5,0.8-1,1.2-1.5c0.1-0.1,0.2-0.3,0.1-0.4c-0.2-0.3-0.5-0.6-0.8-0.9
		c-0.1-0.1-0.2-0.1-0.3,0c-0.6,0.5-1.2,1-1.8,1.5c-0.2,0.2-0.5,0.2-0.7,0.1c-0.4-0.2-0.8-0.4-1.2-0.6c-0.2-0.1-0.4-0.3-0.4-0.5
		c-0.2-0.8-0.3-1.6-0.4-2.3c-0.1-0.9,0-0.7-0.8-0.7c-0.1,0-0.2,0-0.2,0c-0.5,0-1.1,0-1.6,0c-0.2,1.1-0.4,2.1-0.6,3.1
		c0,0.2-0.2,0.4-0.4,0.5c-0.4,0.2-0.9,0.4-1.3,0.7c-0.3,0.1-0.5,0.1-0.7-0.1c-0.5-0.4-0.9-0.8-1.4-1.2c-0.2-0.1-0.3-0.3-0.6-0.4
		c-0.3,0.3-0.5,0.6-0.8,0.9c-0.2,0.2-0.1,0.3,0,0.4c0.5,0.5,0.9,1.1,1.4,1.6c0.2,0.3,0.3,0.5,0.1,0.8c-0.2,0.4-0.4,0.7-0.6,1.1
		c-0.1,0.3-0.3,0.5-0.6,0.5c-0.9,0.2-1.8,0.3-2.7,0.5c-0.2,0-0.3,0.1-0.3,0.3c0,0.7,0,1.3,0,2c0,0.2,0.1,0.3,0.3,0.3
		c0.9,0.2,1.8,0.3,2.8,0.5c0.3,0,0.4,0.2,0.5,0.4c0.2,0.4,0.4,0.8,0.6,1.2c0.2,0.3,0.2,0.5,0,0.8c-0.5,0.5-0.9,1-1.3,1.6
		c-0.2,0.2-0.2,0.4,0,0.6c0.3,0.2,0.6,0.5,0.9,0.8c0.3-0.3,0.6-0.5,1-0.7c0.4-0.3,0.7-0.6,1.1-0.8c0.1-0.1,0.3-0.1,0.4-0.1
		c0.5,0.2,0.9,0.5,1.4,0.7c0.3,0.1,0.5,0.4,0.5,0.7c0.1,0.9,0.3,1.7,0.5,2.6c0,0.2,0.1,0.3,0.3,0.3c0.6,0,1.3,0,1.9,0
		c0.3,0,0.4-0.1,0.4-0.4c0.1-0.9,0.3-1.8,0.5-2.7c0.1-0.3,0.2-0.5,0.5-0.6c0.4-0.2,0.8-0.4,1.2-0.6c0.4-0.2,0.5-0.3,0.9,0.1
		c0.6,0.5,1.2,1,1.7,1.4C-501.3,2058.4-501,2058-500.6,2057.6z"/>
	<path class="st3" d="M-507.8,2046.4c2.9,0,5.2,2.4,5.2,5.2c0,2.9-2.2,5.2-5.1,5.2c-3.3,0-5.4-2.4-5.4-5.2
		C-513.1,2048.7-510.7,2046.4-507.8,2046.4z M-507.8,2055.9c2.4,0,4.3-1.9,4.3-4.3c0-2.4-2-4.3-4.4-4.3c-2.3,0-4.3,2-4.3,4.3
		C-512.1,2054-510.2,2055.9-507.8,2055.9z"/>
</g>
<g>
	<path class="st3" d="M-80.2,1957.5c-0.4,0.5-0.5,1-0.6,1.5c-0.1,0.4-0.1,0.8-0.1,1.3c0,1.7,0,3.4,0,5.2c0,0.8,0.4,1.2,1.2,1.3
		c0.1,0,0.3,0,0.3,0.1c0.1,0.1,0.3,0.3,0.3,0.5c0,0.2-0.1,0.4-0.4,0.4c-0.9,0.1-2.1-0.5-2.3-1.7c0-0.2,0-0.5,0-0.7
		c0-1.8,0-3.7,0-5.5c0-1.3,0.4-2.4,1.3-3.4c0.1-0.1,0-0.6-0.2-0.7c-0.3-0.1-0.6-0.3-0.9-0.4c-0.1,0-0.3,0-0.3,0.1
		c-0.5,0.4-1,0.8-1.6,1.3c-0.4,0.3-0.7,0.3-1.1-0.1c-0.3-0.3-0.7-0.7-1-1c-0.5-0.5-0.4-1.1,0-1.6c0.4-0.4,0.7-0.9,1.1-1.4
		c0,0,0-0.2,0-0.2c-0.1-0.3-0.3-0.6-0.4-0.9c0-0.1-0.2-0.1-0.3-0.2c-0.8-0.2-1.7-0.3-2.5-0.5c-0.7-0.1-0.9-0.4-0.9-1.1
		c0-0.8,0-1.5,0-2.3c0-0.6,0.3-0.9,0.9-1.1c0.8-0.2,1.7-0.3,2.5-0.5c0.2,0,0.3-0.1,0.4-0.3c0-0.1,0.1-0.2,0.1-0.3
		c0.4-0.4,0.2-0.7-0.1-1.1c-0.4-0.4-0.7-0.8-1-1.2c-0.4-0.5-0.4-0.9,0.1-1.3c0.3-0.3,0.7-0.7,1-1c0.5-0.5,0.9-0.5,1.4-0.1
		c0.5,0.4,0.9,0.7,1.4,1.1c0.2,0.2,0.4,0.3,0.7,0.1c0,0,0,0,0.1,0c0.6-0.1,0.8-0.6,0.9-1.1c0.1-0.7,0.2-1.3,0.3-2
		c0.1-0.6,0.4-0.9,1.1-0.9c0.7,0,1.4,0,2.2,0c0.5,0,0.9,0.1,1.1,0.5c0.2-0.3,0.4-0.6,0.5-0.9c1.7-3.1,5.1-4.8,8.6-4.2
		c3.5,0.6,6.2,3.3,6.7,6.8c0.7,4.2-1.9,8.1-5.9,9.3c-0.4,0.1-0.7,0.1-1.1,0.2c-0.2,0-0.3,0.1-0.3,0.3c0,0.6-0.3,0.8-0.8,0.9
		c-0.5,0.1-0.9,0.2-1.4,0.3c0,0,0,0-0.1,0.1c0.1,0,0.3,0,0.4,0c1.7,0,3.4,0,5.1,0c2.2,0.1,4.3,0.8,6.1,2.2c1.9,1.4,3.2,3.2,3.6,5.6
		c0.1,0.4,0.1,0.9,0.1,1.3c0,1.8,0,3.5,0,5.3c0,1.2-0.9,2-1.9,2.1c-0.2,0-0.3,0-0.5,0c-3.2,0-6.5,0-9.7,0c-1.1,0-2.2,0-3.3,0
		c-1.1,0-2.1,0-3.2,0c-0.4,0-0.8,0-1.3,0c-0.4,0-0.6-0.1-0.6-0.4c0-0.3,0.2-0.5,0.6-0.5c1.5,0,3,0,4.5,0c4.3,0,8.6,0,12.9,0
		c0.3,0,0.7-0.1,1-0.2c0.3-0.1,0.5-0.4,0.5-0.7c0-2.1,0-4.1,0-6.2c-0.1-1.5-0.7-2.8-1.7-3.9c-1.6-1.9-3.8-2.9-6.2-3.3
		c-0.8-0.1-1.5-0.2-2.3-0.2c-1.9,0-3.8,0-5.6,0c-0.1,0-0.3,0.1-0.4,0.1c0,0.1,0,0.3,0.1,0.4c0.4,0.5,0.7,0.9,1.1,1.4
		c0.4,0.5,0.4,0.9-0.1,1.4c-0.3,0.3-0.6,0.6-1,1c-0.4,0.4-0.8,0.5-1.3,0.1c-0.5-0.4-0.9-0.7-1.4-1.1c-0.2-0.2-0.4-0.2-0.6,0
		c0,0-0.1,0.1-0.1,0.1c-0.6,0.1-0.8,0.6-0.9,1.2c-0.1,0.6-0.2,1.3-0.3,1.9c-0.1,0.6-0.4,0.9-1,0.9c-0.8,0-1.6,0-2.4,0
		c-0.6,0-0.9-0.3-1-0.9C-80.1,1958.2-80.2,1957.9-80.2,1957.5z M-67.1,1948.7c0.4-0.1,0.7-0.1,1-0.2c3.5-0.9,5.9-4.4,5.4-8
		c-0.4-3.1-2.7-5.5-5.7-6.2c-3-0.7-6.1,0.6-7.8,3.2c-0.3,0.4-0.5,0.8-0.7,1.2c-0.4,0.6-0.7,1.3-0.4,2c0,0,0,0.1,0,0.1
		c0,0.4,0.1,0.7,0.6,0.8c0.1,0,0.2,0.1,0.3,0.1c0.2,0.1,0.3,0.1,0.5,0c0.5-0.4,0.9-0.8,1.4-1.2c0.5-0.4,1-0.4,1.5,0.1
		c0.3,0.3,0.7,0.7,1,1c0.3,0.3,0.3,0.8,0.1,1.1c-0.3,0.4-0.7,0.9-1,1.2c-0.4,0.4-0.5,0.7-0.1,1.2c0.1,0.1,0.1,0.3,0.2,0.4
		c0.1,0.1,0.2,0.3,0.4,0.3c0.8,0.2,1.7,0.3,2.5,0.5c0.6,0.1,0.9,0.4,0.9,1C-67.1,1947.8-67.1,1948.2-67.1,1948.7z M-70.6,1954.6
		c-0.5-0.6-1-1.2-1.5-1.8c-0.2-0.3-0.2-0.5-0.1-0.8c0.2-0.4,0.4-0.8,0.6-1.2c0.1-0.3,0.3-0.4,0.6-0.5c0.9-0.2,1.8-0.3,2.7-0.5
		c0.2,0,0.3-0.1,0.3-0.3c0-0.7,0-1.3,0-2c0-0.2-0.1-0.3-0.3-0.4c-0.9-0.2-1.7-0.3-2.6-0.5c-0.3-0.1-0.5-0.2-0.7-0.5
		c-0.1-0.4-0.3-0.7-0.5-1.1c-0.3-0.5-0.3-0.6,0.1-1c0.4-0.5,0.8-1,1.2-1.5c0.1-0.1,0.2-0.3,0.1-0.4c-0.2-0.3-0.5-0.6-0.8-0.9
		c-0.1-0.1-0.2-0.1-0.3,0c-0.6,0.5-1.2,1-1.8,1.5c-0.2,0.2-0.5,0.2-0.7,0.1c-0.4-0.2-0.8-0.4-1.2-0.6c-0.2-0.1-0.4-0.3-0.4-0.5
		c-0.2-0.8-0.3-1.6-0.4-2.3c-0.1-0.9,0-0.7-0.8-0.7c-0.1,0-0.2,0-0.2,0c-0.5,0-1.1,0-1.6,0c-0.2,1.1-0.4,2.1-0.6,3.1
		c0,0.2-0.2,0.4-0.4,0.5c-0.4,0.2-0.9,0.4-1.3,0.7c-0.3,0.1-0.5,0.1-0.7-0.1c-0.5-0.4-0.9-0.8-1.4-1.2c-0.2-0.1-0.3-0.3-0.6-0.4
		c-0.3,0.3-0.5,0.6-0.8,0.9c-0.2,0.2-0.1,0.3,0,0.4c0.5,0.5,0.9,1.1,1.4,1.6c0.2,0.3,0.3,0.5,0.1,0.8c-0.2,0.4-0.4,0.7-0.6,1.1
		c-0.1,0.3-0.3,0.5-0.6,0.5c-0.9,0.2-1.8,0.3-2.7,0.5c-0.2,0-0.3,0.1-0.3,0.3c0,0.7,0,1.3,0,2c0,0.2,0.1,0.3,0.3,0.3
		c0.9,0.2,1.8,0.3,2.8,0.5c0.3,0,0.4,0.2,0.5,0.4c0.2,0.4,0.4,0.8,0.6,1.2c0.2,0.3,0.2,0.5,0,0.8c-0.5,0.5-0.9,1-1.3,1.6
		c-0.2,0.2-0.2,0.4,0,0.6c0.3,0.2,0.6,0.5,0.9,0.8c0.3-0.3,0.6-0.5,1-0.7c0.4-0.3,0.7-0.6,1.1-0.8c0.1-0.1,0.3-0.1,0.4-0.1
		c0.5,0.2,0.9,0.5,1.4,0.7c0.3,0.1,0.5,0.4,0.5,0.7c0.1,0.9,0.3,1.7,0.5,2.6c0,0.2,0.1,0.3,0.3,0.3c0.6,0,1.3,0,1.9,0
		c0.3,0,0.4-0.1,0.4-0.4c0.1-0.9,0.3-1.8,0.5-2.7c0.1-0.3,0.2-0.5,0.5-0.6c0.4-0.2,0.8-0.4,1.2-0.6c0.4-0.2,0.5-0.3,0.9,0.1
		c0.6,0.5,1.2,1,1.7,1.4C-71.3,1955.4-71,1955-70.6,1954.6z"/>
	<path class="st3" d="M-77.8,1943.4c2.9,0,5.2,2.4,5.2,5.2c0,2.9-2.2,5.2-5.1,5.2c-3.3,0-5.4-2.4-5.4-5.2
		C-83.1,1945.7-80.7,1943.4-77.8,1943.4z M-77.8,1952.9c2.4,0,4.3-1.9,4.3-4.3c0-2.4-2-4.3-4.4-4.3c-2.3,0-4.3,2-4.3,4.3
		C-82.1,1951-80.2,1952.9-77.8,1952.9z"/>
</g>
<g>
	<path class="st3" d="M-77.2,2058.5c-0.4,0.5-0.5,1-0.6,1.5c-0.1,0.4-0.1,0.8-0.1,1.3c0,1.7,0,3.4,0,5.2c0,0.8,0.4,1.2,1.2,1.3
		c0.1,0,0.3,0,0.3,0.1c0.1,0.1,0.3,0.3,0.3,0.5c0,0.2-0.1,0.4-0.4,0.4c-0.9,0.1-2.1-0.5-2.3-1.7c0-0.2,0-0.5,0-0.7
		c0-1.8,0-3.7,0-5.5c0-1.3,0.4-2.4,1.3-3.4c0.1-0.1,0-0.6-0.2-0.7c-0.3-0.1-0.6-0.3-0.9-0.4c-0.1,0-0.3,0-0.3,0.1
		c-0.5,0.4-1,0.8-1.6,1.3c-0.4,0.3-0.7,0.3-1.1-0.1c-0.3-0.3-0.7-0.7-1-1c-0.5-0.5-0.4-1.1,0-1.6c0.4-0.4,0.7-0.9,1.1-1.4
		c0,0,0-0.2,0-0.2c-0.1-0.3-0.3-0.6-0.4-0.9c0-0.1-0.2-0.1-0.3-0.2c-0.8-0.2-1.7-0.3-2.5-0.5c-0.7-0.1-0.9-0.4-0.9-1.1
		c0-0.8,0-1.5,0-2.3c0-0.6,0.3-0.9,0.9-1.1c0.8-0.2,1.7-0.3,2.5-0.5c0.2,0,0.3-0.1,0.4-0.3c0-0.1,0.1-0.2,0.1-0.3
		c0.4-0.4,0.2-0.7-0.1-1.1c-0.4-0.4-0.7-0.8-1-1.2c-0.4-0.5-0.4-0.9,0.1-1.3c0.3-0.3,0.7-0.7,1-1c0.5-0.5,0.9-0.5,1.4-0.1
		c0.5,0.4,0.9,0.7,1.4,1.1c0.2,0.2,0.4,0.3,0.7,0.1c0,0,0,0,0.1,0c0.6-0.1,0.8-0.6,0.9-1.1c0.1-0.7,0.2-1.3,0.3-2
		c0.1-0.6,0.4-0.9,1.1-0.9c0.7,0,1.4,0,2.2,0c0.5,0,0.9,0.1,1.1,0.5c0.2-0.3,0.4-0.6,0.5-0.9c1.7-3.1,5.1-4.8,8.6-4.2
		c3.5,0.6,6.2,3.3,6.7,6.8c0.7,4.2-1.9,8.1-5.9,9.3c-0.4,0.1-0.7,0.1-1.1,0.2c-0.2,0-0.3,0.1-0.3,0.3c0,0.6-0.3,0.8-0.8,0.9
		c-0.5,0.1-0.9,0.2-1.4,0.3c0,0,0,0-0.1,0.1c0.1,0,0.3,0,0.4,0c1.7,0,3.4,0,5.1,0c2.2,0.1,4.3,0.8,6.1,2.2c1.9,1.4,3.2,3.2,3.6,5.6
		c0.1,0.4,0.1,0.9,0.1,1.3c0,1.8,0,3.5,0,5.3c0,1.2-0.9,2-1.9,2.1c-0.2,0-0.3,0-0.5,0c-3.2,0-6.5,0-9.7,0c-1.1,0-2.2,0-3.3,0
		c-1.1,0-2.1,0-3.2,0c-0.4,0-0.8,0-1.3,0c-0.4,0-0.6-0.1-0.6-0.4c0-0.3,0.2-0.5,0.6-0.5c1.5,0,3,0,4.5,0c4.3,0,8.6,0,12.9,0
		c0.3,0,0.7-0.1,1-0.2c0.3-0.1,0.5-0.4,0.5-0.7c0-2.1,0-4.1,0-6.2c-0.1-1.5-0.7-2.8-1.7-3.9c-1.6-1.9-3.8-2.9-6.2-3.3
		c-0.8-0.1-1.5-0.2-2.3-0.2c-1.9,0-3.8,0-5.6,0c-0.1,0-0.3,0.1-0.4,0.1c0,0.1,0,0.3,0.1,0.4c0.4,0.5,0.7,0.9,1.1,1.4
		c0.4,0.5,0.4,0.9-0.1,1.4c-0.3,0.3-0.6,0.6-1,1c-0.4,0.4-0.8,0.5-1.3,0.1c-0.5-0.4-0.9-0.7-1.4-1.1c-0.2-0.2-0.4-0.2-0.6,0
		c0,0-0.1,0.1-0.1,0.1c-0.6,0.1-0.8,0.6-0.9,1.2c-0.1,0.6-0.2,1.3-0.3,1.9c-0.1,0.6-0.4,0.9-1,0.9c-0.8,0-1.6,0-2.4,0
		c-0.6,0-0.9-0.3-1-0.9C-77.1,2059.2-77.2,2058.9-77.2,2058.5z M-64.1,2049.7c0.4-0.1,0.7-0.1,1-0.2c3.5-0.9,5.9-4.4,5.4-8
		c-0.4-3.1-2.7-5.5-5.7-6.2c-3-0.7-6.1,0.6-7.8,3.2c-0.3,0.4-0.5,0.8-0.7,1.2c-0.4,0.6-0.7,1.3-0.4,2c0,0,0,0.1,0,0.1
		c0,0.4,0.1,0.7,0.6,0.8c0.1,0,0.2,0.1,0.3,0.1c0.2,0.1,0.3,0.1,0.5,0c0.5-0.4,0.9-0.8,1.4-1.2c0.5-0.4,1-0.4,1.5,0.1
		c0.3,0.3,0.7,0.7,1,1c0.3,0.3,0.3,0.8,0.1,1.1c-0.3,0.4-0.7,0.9-1,1.2c-0.4,0.4-0.5,0.7-0.1,1.2c0.1,0.1,0.1,0.3,0.2,0.4
		c0.1,0.1,0.2,0.3,0.4,0.3c0.8,0.2,1.7,0.3,2.5,0.5c0.6,0.1,0.9,0.4,0.9,1C-64.1,2048.8-64.1,2049.2-64.1,2049.7z M-67.6,2055.6
		c-0.5-0.6-1-1.2-1.5-1.8c-0.2-0.3-0.2-0.5-0.1-0.8c0.2-0.4,0.4-0.8,0.6-1.2c0.1-0.3,0.3-0.4,0.6-0.5c0.9-0.2,1.8-0.3,2.7-0.5
		c0.2,0,0.3-0.1,0.3-0.3c0-0.7,0-1.3,0-2c0-0.2-0.1-0.3-0.3-0.4c-0.9-0.2-1.7-0.3-2.6-0.5c-0.3-0.1-0.5-0.2-0.7-0.5
		c-0.1-0.4-0.3-0.7-0.5-1.1c-0.3-0.5-0.3-0.6,0.1-1c0.4-0.5,0.8-1,1.2-1.5c0.1-0.1,0.2-0.3,0.1-0.4c-0.2-0.3-0.5-0.6-0.8-0.9
		c-0.1-0.1-0.2-0.1-0.3,0c-0.6,0.5-1.2,1-1.8,1.5c-0.2,0.2-0.5,0.2-0.7,0.1c-0.4-0.2-0.8-0.4-1.2-0.6c-0.2-0.1-0.4-0.3-0.4-0.5
		c-0.2-0.8-0.3-1.6-0.4-2.3c-0.1-0.9,0-0.7-0.8-0.7c-0.1,0-0.2,0-0.2,0c-0.5,0-1.1,0-1.6,0c-0.2,1.1-0.4,2.1-0.6,3.1
		c0,0.2-0.2,0.4-0.4,0.5c-0.4,0.2-0.9,0.4-1.3,0.7c-0.3,0.1-0.5,0.1-0.7-0.1c-0.5-0.4-0.9-0.8-1.4-1.2c-0.2-0.1-0.3-0.3-0.6-0.4
		c-0.3,0.3-0.5,0.6-0.8,0.9c-0.2,0.2-0.1,0.3,0,0.4c0.5,0.5,0.9,1.1,1.4,1.6c0.2,0.3,0.3,0.5,0.1,0.8c-0.2,0.4-0.4,0.7-0.6,1.1
		c-0.1,0.3-0.3,0.5-0.6,0.5c-0.9,0.2-1.8,0.3-2.7,0.5c-0.2,0-0.3,0.1-0.3,0.3c0,0.7,0,1.3,0,2c0,0.2,0.1,0.3,0.3,0.3
		c0.9,0.2,1.8,0.3,2.8,0.5c0.3,0,0.4,0.2,0.5,0.4c0.2,0.4,0.4,0.8,0.6,1.2c0.2,0.3,0.2,0.5,0,0.8c-0.5,0.5-0.9,1-1.3,1.6
		c-0.2,0.2-0.2,0.4,0,0.6c0.3,0.2,0.6,0.5,0.9,0.8c0.3-0.3,0.6-0.5,1-0.7c0.4-0.3,0.7-0.6,1.1-0.8c0.1-0.1,0.3-0.1,0.4-0.1
		c0.5,0.2,0.9,0.5,1.4,0.7c0.3,0.1,0.5,0.4,0.5,0.7c0.1,0.9,0.3,1.7,0.5,2.6c0,0.2,0.1,0.3,0.3,0.3c0.6,0,1.3,0,1.9,0
		c0.3,0,0.4-0.1,0.4-0.4c0.1-0.9,0.3-1.8,0.5-2.7c0.1-0.3,0.2-0.5,0.5-0.6c0.4-0.2,0.8-0.4,1.2-0.6c0.4-0.2,0.5-0.3,0.9,0.1
		c0.6,0.5,1.2,1,1.7,1.4C-68.3,2056.4-68,2056-67.6,2055.6z"/>
	<path class="st3" d="M-74.8,2044.4c2.9,0,5.2,2.4,5.2,5.2c0,2.9-2.2,5.2-5.1,5.2c-3.3,0-5.4-2.4-5.4-5.2
		C-80.1,2046.7-77.7,2044.4-74.8,2044.4z M-74.8,2053.9c2.4,0,4.3-1.9,4.3-4.3c0-2.4-2-4.3-4.4-4.3c-2.3,0-4.3,2-4.3,4.3
		C-79.1,2052-77.2,2053.9-74.8,2053.9z"/>
</g>
<g>
	<path class="st3" d="M374.8,1852.5c-0.4,0.5-0.5,1-0.6,1.5c-0.1,0.4-0.1,0.8-0.1,1.3c0,1.7,0,3.4,0,5.2c0,0.8,0.4,1.2,1.2,1.3
		c0.1,0,0.3,0,0.3,0.1c0.1,0.1,0.3,0.3,0.3,0.5c0,0.2-0.1,0.4-0.4,0.4c-0.9,0.1-2.1-0.5-2.3-1.7c0-0.2,0-0.5,0-0.7
		c0-1.8,0-3.7,0-5.5c0-1.3,0.4-2.4,1.3-3.4c0.1-0.1,0-0.6-0.2-0.7c-0.3-0.1-0.6-0.3-0.9-0.4c-0.1,0-0.3,0-0.3,0.1
		c-0.5,0.4-1,0.8-1.6,1.3c-0.4,0.3-0.7,0.3-1.1-0.1c-0.3-0.3-0.7-0.7-1-1c-0.5-0.5-0.4-1.1,0-1.6c0.4-0.4,0.7-0.9,1.1-1.4
		c0,0,0-0.2,0-0.2c-0.1-0.3-0.3-0.6-0.4-0.9c0-0.1-0.2-0.1-0.3-0.2c-0.8-0.2-1.7-0.3-2.5-0.5c-0.7-0.1-0.9-0.4-0.9-1.1
		c0-0.8,0-1.5,0-2.3c0-0.6,0.3-0.9,0.9-1.1c0.8-0.2,1.7-0.3,2.5-0.5c0.2,0,0.3-0.1,0.4-0.3c0-0.1,0.1-0.2,0.1-0.3
		c0.4-0.4,0.2-0.7-0.1-1.1c-0.4-0.4-0.7-0.8-1-1.2c-0.4-0.5-0.4-0.9,0.1-1.3c0.3-0.3,0.7-0.7,1-1c0.5-0.5,0.9-0.5,1.4-0.1
		c0.5,0.4,0.9,0.7,1.4,1.1c0.2,0.2,0.4,0.3,0.7,0.1c0,0,0,0,0.1,0c0.6-0.1,0.8-0.6,0.9-1.1c0.1-0.7,0.2-1.3,0.3-2
		c0.1-0.6,0.4-0.9,1.1-0.9c0.7,0,1.4,0,2.2,0c0.5,0,0.9,0.1,1.1,0.5c0.2-0.3,0.4-0.6,0.5-0.9c1.7-3.1,5.1-4.8,8.6-4.2
		c3.5,0.6,6.2,3.3,6.7,6.8c0.7,4.2-1.9,8.1-5.9,9.3c-0.4,0.1-0.7,0.1-1.1,0.2c-0.2,0-0.3,0.1-0.3,0.3c0,0.6-0.3,0.8-0.8,0.9
		c-0.5,0.1-0.9,0.2-1.4,0.3c0,0,0,0-0.1,0.1c0.1,0,0.3,0,0.4,0c1.7,0,3.4,0,5.1,0c2.2,0.1,4.3,0.8,6.1,2.2c1.9,1.4,3.2,3.2,3.6,5.6
		c0.1,0.4,0.1,0.9,0.1,1.3c0,1.8,0,3.5,0,5.3c0,1.2-0.9,2-1.9,2.1c-0.2,0-0.3,0-0.5,0c-3.2,0-6.5,0-9.7,0c-1.1,0-2.2,0-3.3,0
		c-1.1,0-2.1,0-3.2,0c-0.4,0-0.8,0-1.3,0c-0.4,0-0.6-0.1-0.6-0.4c0-0.3,0.2-0.5,0.6-0.5c1.5,0,3,0,4.5,0c4.3,0,8.6,0,12.9,0
		c0.3,0,0.7-0.1,1-0.2c0.3-0.1,0.5-0.4,0.5-0.7c0-2.1,0-4.1,0-6.2c-0.1-1.5-0.7-2.8-1.7-3.9c-1.6-1.9-3.8-2.9-6.2-3.3
		c-0.8-0.1-1.5-0.2-2.3-0.2c-1.9,0-3.8,0-5.6,0c-0.1,0-0.3,0.1-0.4,0.1c0,0.1,0,0.3,0.1,0.4c0.4,0.5,0.7,0.9,1.1,1.4
		c0.4,0.5,0.4,0.9-0.1,1.4c-0.3,0.3-0.6,0.6-1,1c-0.4,0.4-0.8,0.5-1.3,0.1c-0.5-0.4-0.9-0.7-1.4-1.1c-0.2-0.2-0.4-0.2-0.6,0
		c0,0-0.1,0.1-0.1,0.1c-0.6,0.1-0.8,0.6-0.9,1.2c-0.1,0.6-0.2,1.3-0.3,1.9c-0.1,0.6-0.4,0.9-1,0.9c-0.8,0-1.6,0-2.4,0
		c-0.6,0-0.9-0.3-1-0.9C374.9,1853.2,374.8,1852.9,374.8,1852.5z M387.9,1843.7c0.4-0.1,0.7-0.1,1-0.2c3.5-0.9,5.9-4.4,5.4-8
		c-0.4-3.1-2.7-5.5-5.7-6.2c-3-0.7-6.1,0.6-7.8,3.2c-0.3,0.4-0.5,0.8-0.7,1.2c-0.4,0.6-0.7,1.3-0.4,2c0,0,0,0.1,0,0.1
		c0,0.4,0.1,0.7,0.6,0.8c0.1,0,0.2,0.1,0.3,0.1c0.2,0.1,0.3,0.1,0.5,0c0.5-0.4,0.9-0.8,1.4-1.2c0.5-0.4,1-0.4,1.5,0.1
		c0.3,0.3,0.7,0.7,1,1c0.3,0.3,0.3,0.8,0.1,1.1c-0.3,0.4-0.7,0.9-1,1.2c-0.4,0.4-0.5,0.7-0.1,1.2c0.1,0.1,0.1,0.3,0.2,0.4
		c0.1,0.1,0.2,0.3,0.4,0.3c0.8,0.2,1.7,0.3,2.5,0.5c0.6,0.1,0.9,0.4,0.9,1C387.9,1842.8,387.9,1843.2,387.9,1843.7z M384.4,1849.6
		c-0.5-0.6-1-1.2-1.5-1.8c-0.2-0.3-0.2-0.5-0.1-0.8c0.2-0.4,0.4-0.8,0.6-1.2c0.1-0.3,0.3-0.4,0.6-0.5c0.9-0.2,1.8-0.3,2.7-0.5
		c0.2,0,0.3-0.1,0.3-0.3c0-0.7,0-1.3,0-2c0-0.2-0.1-0.3-0.3-0.4c-0.9-0.2-1.7-0.3-2.6-0.5c-0.3-0.1-0.5-0.2-0.7-0.5
		c-0.1-0.4-0.3-0.7-0.5-1.1c-0.3-0.5-0.3-0.6,0.1-1c0.4-0.5,0.8-1,1.2-1.5c0.1-0.1,0.2-0.3,0.1-0.4c-0.2-0.3-0.5-0.6-0.8-0.9
		c-0.1-0.1-0.2-0.1-0.3,0c-0.6,0.5-1.2,1-1.8,1.5c-0.2,0.2-0.5,0.2-0.7,0.1c-0.4-0.2-0.8-0.4-1.2-0.6c-0.2-0.1-0.4-0.3-0.4-0.5
		c-0.2-0.8-0.3-1.6-0.4-2.3c-0.1-0.9,0-0.7-0.8-0.7c-0.1,0-0.2,0-0.2,0c-0.5,0-1.1,0-1.6,0c-0.2,1.1-0.4,2.1-0.6,3.1
		c0,0.2-0.2,0.4-0.4,0.5c-0.4,0.2-0.9,0.4-1.3,0.7c-0.3,0.1-0.5,0.1-0.7-0.1c-0.5-0.4-0.9-0.8-1.4-1.2c-0.2-0.1-0.3-0.3-0.6-0.4
		c-0.3,0.3-0.5,0.6-0.8,0.9c-0.2,0.2-0.1,0.3,0,0.4c0.5,0.5,0.9,1.1,1.4,1.6c0.2,0.3,0.3,0.5,0.1,0.8c-0.2,0.4-0.4,0.7-0.6,1.1
		c-0.1,0.3-0.3,0.5-0.6,0.5c-0.9,0.2-1.8,0.3-2.7,0.5c-0.2,0-0.3,0.1-0.3,0.3c0,0.7,0,1.3,0,2c0,0.2,0.1,0.3,0.3,0.3
		c0.9,0.2,1.8,0.3,2.8,0.5c0.3,0,0.4,0.2,0.5,0.4c0.2,0.4,0.4,0.8,0.6,1.2c0.2,0.3,0.2,0.5,0,0.8c-0.5,0.5-0.9,1-1.3,1.6
		c-0.2,0.2-0.2,0.4,0,0.6c0.3,0.2,0.6,0.5,0.9,0.8c0.3-0.3,0.6-0.5,1-0.7c0.4-0.3,0.7-0.6,1.1-0.8c0.1-0.1,0.3-0.1,0.4-0.1
		c0.5,0.2,0.9,0.5,1.4,0.7c0.3,0.1,0.5,0.4,0.5,0.7c0.1,0.9,0.3,1.7,0.5,2.6c0,0.2,0.1,0.3,0.3,0.3c0.6,0,1.3,0,1.9,0
		c0.3,0,0.4-0.1,0.4-0.4c0.1-0.9,0.3-1.8,0.5-2.7c0.1-0.3,0.2-0.5,0.5-0.6c0.4-0.2,0.8-0.4,1.2-0.6c0.4-0.2,0.5-0.3,0.9,0.1
		c0.6,0.5,1.2,1,1.7,1.4C383.7,1850.4,384,1850,384.4,1849.6z"/>
	<path class="st3" d="M377.2,1838.4c2.9,0,5.2,2.4,5.2,5.2c0,2.9-2.2,5.2-5.1,5.2c-3.3,0-5.4-2.4-5.4-5.2
		C371.9,1840.7,374.3,1838.4,377.2,1838.4z M377.2,1847.9c2.4,0,4.3-1.9,4.3-4.3c0-2.4-2-4.3-4.4-4.3c-2.3,0-4.3,2-4.3,4.3
		C372.9,1846,374.8,1847.9,377.2,1847.9z"/>
</g>
<g>
	<path class="st3" d="M373.8,1960.5c-0.4,0.5-0.5,1-0.6,1.5c-0.1,0.4-0.1,0.8-0.1,1.3c0,1.7,0,3.4,0,5.2c0,0.8,0.4,1.2,1.2,1.3
		c0.1,0,0.3,0,0.3,0.1c0.1,0.1,0.3,0.3,0.3,0.5c0,0.2-0.1,0.4-0.4,0.4c-0.9,0.1-2.1-0.5-2.3-1.7c0-0.2,0-0.5,0-0.7
		c0-1.8,0-3.7,0-5.5c0-1.3,0.4-2.4,1.3-3.4c0.1-0.1,0-0.6-0.2-0.7c-0.3-0.1-0.6-0.3-0.9-0.4c-0.1,0-0.3,0-0.3,0.1
		c-0.5,0.4-1,0.8-1.6,1.3c-0.4,0.3-0.7,0.3-1.1-0.1c-0.3-0.3-0.7-0.7-1-1c-0.5-0.5-0.4-1.1,0-1.6c0.4-0.4,0.7-0.9,1.1-1.4
		c0,0,0-0.2,0-0.2c-0.1-0.3-0.3-0.6-0.4-0.9c0-0.1-0.2-0.1-0.3-0.2c-0.8-0.2-1.7-0.3-2.5-0.5c-0.7-0.1-0.9-0.4-0.9-1.1
		c0-0.8,0-1.5,0-2.3c0-0.6,0.3-0.9,0.9-1.1c0.8-0.2,1.7-0.3,2.5-0.5c0.2,0,0.3-0.1,0.4-0.3c0-0.1,0.1-0.2,0.1-0.3
		c0.4-0.4,0.2-0.7-0.1-1.1c-0.4-0.4-0.7-0.8-1-1.2c-0.4-0.5-0.4-0.9,0.1-1.3c0.3-0.3,0.7-0.7,1-1c0.5-0.5,0.9-0.5,1.4-0.1
		c0.5,0.4,0.9,0.7,1.4,1.1c0.2,0.2,0.4,0.3,0.7,0.1c0,0,0,0,0.1,0c0.6-0.1,0.8-0.6,0.9-1.1c0.1-0.7,0.2-1.3,0.3-2
		c0.1-0.6,0.4-0.9,1.1-0.9c0.7,0,1.4,0,2.2,0c0.5,0,0.9,0.1,1.1,0.5c0.2-0.3,0.4-0.6,0.5-0.9c1.7-3.1,5.1-4.8,8.6-4.2
		c3.5,0.6,6.2,3.3,6.7,6.8c0.7,4.2-1.9,8.1-5.9,9.3c-0.4,0.1-0.7,0.1-1.1,0.2c-0.2,0-0.3,0.1-0.3,0.3c0,0.6-0.3,0.8-0.8,0.9
		c-0.5,0.1-0.9,0.2-1.4,0.3c0,0,0,0-0.1,0.1c0.1,0,0.3,0,0.4,0c1.7,0,3.4,0,5.1,0c2.2,0.1,4.3,0.8,6.1,2.2c1.9,1.4,3.2,3.2,3.6,5.6
		c0.1,0.4,0.1,0.9,0.1,1.3c0,1.8,0,3.5,0,5.3c0,1.2-0.9,2-1.9,2.1c-0.2,0-0.3,0-0.5,0c-3.2,0-6.5,0-9.7,0c-1.1,0-2.2,0-3.3,0
		c-1.1,0-2.1,0-3.2,0c-0.4,0-0.8,0-1.3,0c-0.4,0-0.6-0.1-0.6-0.4c0-0.3,0.2-0.5,0.6-0.5c1.5,0,3,0,4.5,0c4.3,0,8.6,0,12.9,0
		c0.3,0,0.7-0.1,1-0.2c0.3-0.1,0.5-0.4,0.5-0.7c0-2.1,0-4.1,0-6.2c-0.1-1.5-0.7-2.8-1.7-3.9c-1.6-1.9-3.8-2.9-6.2-3.3
		c-0.8-0.1-1.5-0.2-2.3-0.2c-1.9,0-3.8,0-5.6,0c-0.1,0-0.3,0.1-0.4,0.1c0,0.1,0,0.3,0.1,0.4c0.4,0.5,0.7,0.9,1.1,1.4
		c0.4,0.5,0.4,0.9-0.1,1.4c-0.3,0.3-0.6,0.6-1,1c-0.4,0.4-0.8,0.5-1.3,0.1c-0.5-0.4-0.9-0.7-1.4-1.1c-0.2-0.2-0.4-0.2-0.6,0
		c0,0-0.1,0.1-0.1,0.1c-0.6,0.1-0.8,0.6-0.9,1.2c-0.1,0.6-0.2,1.3-0.3,1.9c-0.1,0.6-0.4,0.9-1,0.9c-0.8,0-1.6,0-2.4,0
		c-0.6,0-0.9-0.3-1-0.9C373.9,1961.2,373.8,1960.9,373.8,1960.5z M386.9,1951.7c0.4-0.1,0.7-0.1,1-0.2c3.5-0.9,5.9-4.4,5.4-8
		c-0.4-3.1-2.7-5.5-5.7-6.2c-3-0.7-6.1,0.6-7.8,3.2c-0.3,0.4-0.5,0.8-0.7,1.2c-0.4,0.6-0.7,1.3-0.4,2c0,0,0,0.1,0,0.1
		c0,0.4,0.1,0.7,0.6,0.8c0.1,0,0.2,0.1,0.3,0.1c0.2,0.1,0.3,0.1,0.5,0c0.5-0.4,0.9-0.8,1.4-1.2c0.5-0.4,1-0.4,1.5,0.1
		c0.3,0.3,0.7,0.7,1,1c0.3,0.3,0.3,0.8,0.1,1.1c-0.3,0.4-0.7,0.9-1,1.2c-0.4,0.4-0.5,0.7-0.1,1.2c0.1,0.1,0.1,0.3,0.2,0.4
		c0.1,0.1,0.2,0.3,0.4,0.3c0.8,0.2,1.7,0.3,2.5,0.5c0.6,0.1,0.9,0.4,0.9,1C386.9,1950.8,386.9,1951.2,386.9,1951.7z M383.4,1957.6
		c-0.5-0.6-1-1.2-1.5-1.8c-0.2-0.3-0.2-0.5-0.1-0.8c0.2-0.4,0.4-0.8,0.6-1.2c0.1-0.3,0.3-0.4,0.6-0.5c0.9-0.2,1.8-0.3,2.7-0.5
		c0.2,0,0.3-0.1,0.3-0.3c0-0.7,0-1.3,0-2c0-0.2-0.1-0.3-0.3-0.4c-0.9-0.2-1.7-0.3-2.6-0.5c-0.3-0.1-0.5-0.2-0.7-0.5
		c-0.1-0.4-0.3-0.7-0.5-1.1c-0.3-0.5-0.3-0.6,0.1-1c0.4-0.5,0.8-1,1.2-1.5c0.1-0.1,0.2-0.3,0.1-0.4c-0.2-0.3-0.5-0.6-0.8-0.9
		c-0.1-0.1-0.2-0.1-0.3,0c-0.6,0.5-1.2,1-1.8,1.5c-0.2,0.2-0.5,0.2-0.7,0.1c-0.4-0.2-0.8-0.4-1.2-0.6c-0.2-0.1-0.4-0.3-0.4-0.5
		c-0.2-0.8-0.3-1.6-0.4-2.3c-0.1-0.9,0-0.7-0.8-0.7c-0.1,0-0.2,0-0.2,0c-0.5,0-1.1,0-1.6,0c-0.2,1.1-0.4,2.1-0.6,3.1
		c0,0.2-0.2,0.4-0.4,0.5c-0.4,0.2-0.9,0.4-1.3,0.7c-0.3,0.1-0.5,0.1-0.7-0.1c-0.5-0.4-0.9-0.8-1.4-1.2c-0.2-0.1-0.3-0.3-0.6-0.4
		c-0.3,0.3-0.5,0.6-0.8,0.9c-0.2,0.2-0.1,0.3,0,0.4c0.5,0.5,0.9,1.1,1.4,1.6c0.2,0.3,0.3,0.5,0.1,0.8c-0.2,0.4-0.4,0.7-0.6,1.1
		c-0.1,0.3-0.3,0.5-0.6,0.5c-0.9,0.2-1.8,0.3-2.7,0.5c-0.2,0-0.3,0.1-0.3,0.3c0,0.7,0,1.3,0,2c0,0.2,0.1,0.3,0.3,0.3
		c0.9,0.2,1.8,0.3,2.8,0.5c0.3,0,0.4,0.2,0.5,0.4c0.2,0.4,0.4,0.8,0.6,1.2c0.2,0.3,0.2,0.5,0,0.8c-0.5,0.5-0.9,1-1.3,1.6
		c-0.2,0.2-0.2,0.4,0,0.6c0.3,0.2,0.6,0.5,0.9,0.8c0.3-0.3,0.6-0.5,1-0.7c0.4-0.3,0.7-0.6,1.1-0.8c0.1-0.1,0.3-0.1,0.4-0.1
		c0.5,0.2,0.9,0.5,1.4,0.7c0.3,0.1,0.5,0.4,0.5,0.7c0.1,0.9,0.3,1.7,0.5,2.6c0,0.2,0.1,0.3,0.3,0.3c0.6,0,1.3,0,1.9,0
		c0.3,0,0.4-0.1,0.4-0.4c0.1-0.9,0.3-1.8,0.5-2.7c0.1-0.3,0.2-0.5,0.5-0.6c0.4-0.2,0.8-0.4,1.2-0.6c0.4-0.2,0.5-0.3,0.9,0.1
		c0.6,0.5,1.2,1,1.7,1.4C382.7,1958.4,383,1958,383.4,1957.6z"/>
	<path class="st3" d="M376.2,1946.4c2.9,0,5.2,2.4,5.2,5.2c0,2.9-2.2,5.2-5.1,5.2c-3.3,0-5.4-2.4-5.4-5.2
		C370.9,1948.7,373.3,1946.4,376.2,1946.4z M376.2,1955.9c2.4,0,4.3-1.9,4.3-4.3c0-2.4-2-4.3-4.4-4.3c-2.3,0-4.3,2-4.3,4.3
		C371.9,1954,373.8,1955.9,376.2,1955.9z"/>
</g>
<g>
	<path class="st3" d="M374.8,2058.5c-0.4,0.5-0.5,1-0.6,1.5c-0.1,0.4-0.1,0.8-0.1,1.3c0,1.7,0,3.4,0,5.2c0,0.8,0.4,1.2,1.2,1.3
		c0.1,0,0.3,0,0.3,0.1c0.1,0.1,0.3,0.3,0.3,0.5c0,0.2-0.1,0.4-0.4,0.4c-0.9,0.1-2.1-0.5-2.3-1.7c0-0.2,0-0.5,0-0.7
		c0-1.8,0-3.7,0-5.5c0-1.3,0.4-2.4,1.3-3.4c0.1-0.1,0-0.6-0.2-0.7c-0.3-0.1-0.6-0.3-0.9-0.4c-0.1,0-0.3,0-0.3,0.1
		c-0.5,0.4-1,0.8-1.6,1.3c-0.4,0.3-0.7,0.3-1.1-0.1c-0.3-0.3-0.7-0.7-1-1c-0.5-0.5-0.4-1.1,0-1.6c0.4-0.4,0.7-0.9,1.1-1.4
		c0,0,0-0.2,0-0.2c-0.1-0.3-0.3-0.6-0.4-0.9c0-0.1-0.2-0.1-0.3-0.2c-0.8-0.2-1.7-0.3-2.5-0.5c-0.7-0.1-0.9-0.4-0.9-1.1
		c0-0.8,0-1.5,0-2.3c0-0.6,0.3-0.9,0.9-1.1c0.8-0.2,1.7-0.3,2.5-0.5c0.2,0,0.3-0.1,0.4-0.3c0-0.1,0.1-0.2,0.1-0.3
		c0.4-0.4,0.2-0.7-0.1-1.1c-0.4-0.4-0.7-0.8-1-1.2c-0.4-0.5-0.4-0.9,0.1-1.3c0.3-0.3,0.7-0.7,1-1c0.5-0.5,0.9-0.5,1.4-0.1
		c0.5,0.4,0.9,0.7,1.4,1.1c0.2,0.2,0.4,0.3,0.7,0.1c0,0,0,0,0.1,0c0.6-0.1,0.8-0.6,0.9-1.1c0.1-0.7,0.2-1.3,0.3-2
		c0.1-0.6,0.4-0.9,1.1-0.9c0.7,0,1.4,0,2.2,0c0.5,0,0.9,0.1,1.1,0.5c0.2-0.3,0.4-0.6,0.5-0.9c1.7-3.1,5.1-4.8,8.6-4.2
		c3.5,0.6,6.2,3.3,6.7,6.8c0.7,4.2-1.9,8.1-5.9,9.3c-0.4,0.1-0.7,0.1-1.1,0.2c-0.2,0-0.3,0.1-0.3,0.3c0,0.6-0.3,0.8-0.8,0.9
		c-0.5,0.1-0.9,0.2-1.4,0.3c0,0,0,0-0.1,0.1c0.1,0,0.3,0,0.4,0c1.7,0,3.4,0,5.1,0c2.2,0.1,4.3,0.8,6.1,2.2c1.9,1.4,3.2,3.2,3.6,5.6
		c0.1,0.4,0.1,0.9,0.1,1.3c0,1.8,0,3.5,0,5.3c0,1.2-0.9,2-1.9,2.1c-0.2,0-0.3,0-0.5,0c-3.2,0-6.5,0-9.7,0c-1.1,0-2.2,0-3.3,0
		c-1.1,0-2.1,0-3.2,0c-0.4,0-0.8,0-1.3,0c-0.4,0-0.6-0.1-0.6-0.4c0-0.3,0.2-0.5,0.6-0.5c1.5,0,3,0,4.5,0c4.3,0,8.6,0,12.9,0
		c0.3,0,0.7-0.1,1-0.2c0.3-0.1,0.5-0.4,0.5-0.7c0-2.1,0-4.1,0-6.2c-0.1-1.5-0.7-2.8-1.7-3.9c-1.6-1.9-3.8-2.9-6.2-3.3
		c-0.8-0.1-1.5-0.2-2.3-0.2c-1.9,0-3.8,0-5.6,0c-0.1,0-0.3,0.1-0.4,0.1c0,0.1,0,0.3,0.1,0.4c0.4,0.5,0.7,0.9,1.1,1.4
		c0.4,0.5,0.4,0.9-0.1,1.4c-0.3,0.3-0.6,0.6-1,1c-0.4,0.4-0.8,0.5-1.3,0.1c-0.5-0.4-0.9-0.7-1.4-1.1c-0.2-0.2-0.4-0.2-0.6,0
		c0,0-0.1,0.1-0.1,0.1c-0.6,0.1-0.8,0.6-0.9,1.2c-0.1,0.6-0.2,1.3-0.3,1.9c-0.1,0.6-0.4,0.9-1,0.9c-0.8,0-1.6,0-2.4,0
		c-0.6,0-0.9-0.3-1-0.9C374.9,2059.2,374.8,2058.9,374.8,2058.5z M387.9,2049.7c0.4-0.1,0.7-0.1,1-0.2c3.5-0.9,5.9-4.4,5.4-8
		c-0.4-3.1-2.7-5.5-5.7-6.2c-3-0.7-6.1,0.6-7.8,3.2c-0.3,0.4-0.5,0.8-0.7,1.2c-0.4,0.6-0.7,1.3-0.4,2c0,0,0,0.1,0,0.1
		c0,0.4,0.1,0.7,0.6,0.8c0.1,0,0.2,0.1,0.3,0.1c0.2,0.1,0.3,0.1,0.5,0c0.5-0.4,0.9-0.8,1.4-1.2c0.5-0.4,1-0.4,1.5,0.1
		c0.3,0.3,0.7,0.7,1,1c0.3,0.3,0.3,0.8,0.1,1.1c-0.3,0.4-0.7,0.9-1,1.2c-0.4,0.4-0.5,0.7-0.1,1.2c0.1,0.1,0.1,0.3,0.2,0.4
		c0.1,0.1,0.2,0.3,0.4,0.3c0.8,0.2,1.7,0.3,2.5,0.5c0.6,0.1,0.9,0.4,0.9,1C387.9,2048.8,387.9,2049.2,387.9,2049.7z M384.4,2055.6
		c-0.5-0.6-1-1.2-1.5-1.8c-0.2-0.3-0.2-0.5-0.1-0.8c0.2-0.4,0.4-0.8,0.6-1.2c0.1-0.3,0.3-0.4,0.6-0.5c0.9-0.2,1.8-0.3,2.7-0.5
		c0.2,0,0.3-0.1,0.3-0.3c0-0.7,0-1.3,0-2c0-0.2-0.1-0.3-0.3-0.4c-0.9-0.2-1.7-0.3-2.6-0.5c-0.3-0.1-0.5-0.2-0.7-0.5
		c-0.1-0.4-0.3-0.7-0.5-1.1c-0.3-0.5-0.3-0.6,0.1-1c0.4-0.5,0.8-1,1.2-1.5c0.1-0.1,0.2-0.3,0.1-0.4c-0.2-0.3-0.5-0.6-0.8-0.9
		c-0.1-0.1-0.2-0.1-0.3,0c-0.6,0.5-1.2,1-1.8,1.5c-0.2,0.2-0.5,0.2-0.7,0.1c-0.4-0.2-0.8-0.4-1.2-0.6c-0.2-0.1-0.4-0.3-0.4-0.5
		c-0.2-0.8-0.3-1.6-0.4-2.3c-0.1-0.9,0-0.7-0.8-0.7c-0.1,0-0.2,0-0.2,0c-0.5,0-1.1,0-1.6,0c-0.2,1.1-0.4,2.1-0.6,3.1
		c0,0.2-0.2,0.4-0.4,0.5c-0.4,0.2-0.9,0.4-1.3,0.7c-0.3,0.1-0.5,0.1-0.7-0.1c-0.5-0.4-0.9-0.8-1.4-1.2c-0.2-0.1-0.3-0.3-0.6-0.4
		c-0.3,0.3-0.5,0.6-0.8,0.9c-0.2,0.2-0.1,0.3,0,0.4c0.5,0.5,0.9,1.1,1.4,1.6c0.2,0.3,0.3,0.5,0.1,0.8c-0.2,0.4-0.4,0.7-0.6,1.1
		c-0.1,0.3-0.3,0.5-0.6,0.5c-0.9,0.2-1.8,0.3-2.7,0.5c-0.2,0-0.3,0.1-0.3,0.3c0,0.7,0,1.3,0,2c0,0.2,0.1,0.3,0.3,0.3
		c0.9,0.2,1.8,0.3,2.8,0.5c0.3,0,0.4,0.2,0.5,0.4c0.2,0.4,0.4,0.8,0.6,1.2c0.2,0.3,0.2,0.5,0,0.8c-0.5,0.5-0.9,1-1.3,1.6
		c-0.2,0.2-0.2,0.4,0,0.6c0.3,0.2,0.6,0.5,0.9,0.8c0.3-0.3,0.6-0.5,1-0.7c0.4-0.3,0.7-0.6,1.1-0.8c0.1-0.1,0.3-0.1,0.4-0.1
		c0.5,0.2,0.9,0.5,1.4,0.7c0.3,0.1,0.5,0.4,0.5,0.7c0.1,0.9,0.3,1.7,0.5,2.6c0,0.2,0.1,0.3,0.3,0.3c0.6,0,1.3,0,1.9,0
		c0.3,0,0.4-0.1,0.4-0.4c0.1-0.9,0.3-1.8,0.5-2.7c0.1-0.3,0.2-0.5,0.5-0.6c0.4-0.2,0.8-0.4,1.2-0.6c0.4-0.2,0.5-0.3,0.9,0.1
		c0.6,0.5,1.2,1,1.7,1.4C383.7,2056.4,384,2056,384.4,2055.6z"/>
	<path class="st3" d="M377.2,2044.4c2.9,0,5.2,2.4,5.2,5.2c0,2.9-2.2,5.2-5.1,5.2c-3.3,0-5.4-2.4-5.4-5.2
		C371.9,2046.7,374.3,2044.4,377.2,2044.4z M377.2,2053.9c2.4,0,4.3-1.9,4.3-4.3c0-2.4-2-4.3-4.4-4.3c-2.3,0-4.3,2-4.3,4.3
		C372.9,2052,374.8,2053.9,377.2,2053.9z"/>
</g>
<rect x="-1890.9" y="217.8" style="fill:none;" width="550" height="24.6"/>
<text transform="matrix(1 0 0 1 -1890.9102 237.5518)" class="st3" style="font-family:'HelveticaNeueLT-67MdCn'; font-size:27.6215px;">Sistema de Admisión</text>
<image style="overflow:visible;" width="440" height="84" xlink:href="4AF6350E.jpg"  transform="matrix(1 0 0 1 -1218 484)">
</image>
<image style="overflow:visible;" width="439" height="64" xlink:href="4AF63512.jpg"  transform="matrix(1 0 0 1 -1219 586)">
</image>
<rect x="-1154" y="519" class="st3" width="111" height="20"/>
<rect x="-1151" y="524.6" style="fill:none;" width="105" height="11.4"/>
<text transform="matrix(1 0 0 1 -1151 533.167)" style="font-family:'MyriadPro-Regular'; font-size:12px;">Cédula de Identidad</text>
<rect x="-1203" y="489.6" style="fill:none;" width="105" height="11.4"/>
<text transform="matrix(1 0 0 1 -1203 498.167)" style="font-family:'MyriadPro-Regular'; font-size:12px;">Cédula de Identidad</text>
<rect x="-1223" y="885.6" style="fill:none;" width="116" height="11.4"/>
<text transform="matrix(1 0 0 1 -1223 894.1675)" style="font-family:'MyriadPro-Bold'; font-size:12px;">Nombre de usuario:</text>
<rect x="-1223" y="973.6" style="fill:none;" width="116" height="11.4"/>
<text transform="matrix(1 0 0 1 -1223 982.1675)" style="font-family:'MyriadPro-Bold'; font-size:12px;">Ingrese contraseña:</text>
<rect x="-778" y="974.6" style="fill:none;" width="128" height="11.4"/>
<text transform="matrix(1 0 0 1 -778 983.1675)" style="font-family:'MyriadPro-Bold'; font-size:12px;">Confirmar contraseña:</text>
<rect x="-926" y="825.6" style="fill:none;" width="324" height="20.6"/>
<text transform="matrix(1 0 0 1 -926 840.5571)" style="font-family:'MyriadPro-Regular'; font-size:21px;">Ingrese sus datos para registrarse</text>
<rect x="-1181" y="610.6" style="fill:none;" width="105" height="11.4"/>
<text transform="matrix(1 0 0 1 -1181 619.167)" style="font-family:'MyriadPro-Regular'; font-size:12px;">Fecha de nacimiento</text>
<rect x="-1203" y="576.6" style="fill:none;" width="105" height="11.4"/>
<text transform="matrix(1 0 0 1 -1203 585.167)" style="font-family:'MyriadPro-Regular'; font-size:12px;">Fecha de nacimiento</text>
<g>
	<image style="overflow:visible;" width="127" height="63" xlink:href="4AF63515.jpg"  transform="matrix(1 0 0 1 -1058 661)">
	</image>
	<rect x="-1010" y="683" class="st8" width="68" height="19"/>
	<rect x="-1007" y="686.2" style="fill:none;" width="48" height="21.3"/>
	<text transform="matrix(1 0 0 1 -1007 696.8052)" class="st3" style="font-family:'MyriadPro-Regular'; font-size:15px;">Validar</text>
</g>
<g>
	<image style="overflow:visible;" width="127" height="63" xlink:href="4AF63516.jpg"  transform="matrix(1 0 0 1 -874 1079)">
	</image>
	<rect x="-855" y="1101" class="st8" width="97" height="19"/>
	<rect x="-835" y="1104.2" style="fill:none;" width="53" height="15.8"/>
	<text transform="matrix(1 0 0 1 -835 1114.8052)" class="st3" style="font-family:'MyriadPro-Regular'; font-size:15px;">Registro</text>
</g>
<g>
	
		<image style="overflow:visible;" width="531" height="362" xlink:href="4AF63516.png"  transform="matrix(1.0565 0 0 1.0552 -1331 1369)">
	</image>
</g>
<rect x="-1555" y="221.7" style="fill:none;" width="770" height="45.3"/>
<text transform="matrix(1 0 0 1 -1545.4219 250.0186)" class="st3" style="font-family:'Roboto-Bold'; font-size:37.7134px;">Escuela Superior Politécnica de Chimborazo</text>
<g>
	<g>
		<g>
			<path class="st3" d="M-1978.9,369.4L-1978.9,369.4L-1978.9,369.4L-1978.9,369.4L-1978.9,369.4c-2.9-1.5-6-1.5-6.4-1.5h-14v3.7h14
				c0,0,0,0,0.1,0c0,0,4.3-0.1,6.3,2.4l0,0h0l0,0c2-2.5,6.2-2.4,6.3-2.4c0,0,0,0,0.1,0h13.9v-3.7h-13.8
				C-1972.9,367.9-1976,367.9-1978.9,369.4z"/>
			<path class="st3" d="M-1952,352.3V304h-3.7h-46.6h-3.7v48.3c0,0,0,0.1,0,0.1c0,0.3,0,3.2,2.3,5.6c1.8,1.8,4.4,2.8,7.7,2.9v0h0.1
				v0h1.6l0,0h9.1c0,0,0,0,0.1,0c0,0,4.3-0.1,6.3,2.4l0,0h0c2-2.5,6.2-2.4,6.3-2.4c0,0,0,0,0.1,0l10.1,0l0,0c3.6,0,6.4-1,8.2-2.9
				C-1952,355.6-1952,352.8-1952,352.3z M-2002.3,307.7h46.6v44.6c0,0,0,0,0,0.1c0,0,0,1.7-1.2,2.9c-1.1,1.1-2.8,1.7-5.2,1.8l0,0.4
				l0-0.4h-10.4c-0.4,0-3.5,0-6.4,1.5c0,0,0,0,0,0h0l0,0c0,0,0,0,0,0c-2.8-1.5-6-1.5-6.4-1.5h-10.7c-2.3-0.1-4-0.6-5.1-1.7
				c-1.2-1.2-1.3-2.7-1.3-2.9L-2002.3,307.7z"/>
			<path class="st3" d="M-1966.6,339.7c-0.1,0-0.3,0-0.4,0c-0.7,0-1.1-0.4-1.1-0.4l0,0c-0.1-0.1-0.1-0.1-0.2-0.2
				c-2.7-2-4.6-1.8-6-1.7c-0.5,0.1-0.8,0.1-1.1,0c-0.2-0.1-0.9-0.6-1.4-1c-3.8-3.9-7.7-3.8-10.4-3c-2.5,0.8-4.3,2.3-4.7,2.6
				l-6.8,5.4v4.8l9.1-7.3c0,0,0.1-0.1,0.1-0.1c0.5-0.5,5.4-4.6,10,0.2c0,0,0.1,0.1,0.1,0.1c0.5,0.5,1.9,1.6,3.1,1.9
				c0.9,0.2,1.7,0.1,2.4,0.1c1-0.1,1.8-0.2,3.3,0.9c0.4,0.4,1.7,1.4,3.6,1.4c0.2,0,0.3,0,0.5,0c0.9,0,1.9-0.1,3.7,1.3
				c0.6,0.5,1.8,1.4,3.3,2.5v-4.7c-0.4-0.3-0.8-0.6-1-0.8C-1963.3,339.5-1965.4,339.6-1966.6,339.7z"/>
			<path class="st3" d="M-1961.6,329.4c-0.4-1.3-0.9-2.6-1.6-3.8l2.2-2.2l-7.1-7.1l-2.2,2.2c-1.2-0.7-2.4-1.2-3.7-1.6v-3.1h-10v3.1
				c-1.3,0.4-2.6,0.9-3.7,1.6l-2.2-2.2l-7.1,7.1l2.2,2.2c-0.7,1.2-1.2,2.5-1.6,3.8h-3.1v8.5l2.9-2.3v-3.3h2.5l0.2-1.1
				c0.4-1.8,1.1-3.5,2-5l0.6-1l-1.7-1.8l3-3l1.7,1.8l1-0.6c1.5-1,3.2-1.7,4.9-2.1l1.1-0.2v-2.5h4.2v2.5l1.1,0.2
				c1.8,0.4,3.4,1.1,4.9,2.1l1,0.6l1.7-1.8l3,3l-1.7,1.8l0.6,1c1,1.5,1.7,3.2,2,5l0.2,1.1h2.5l0,4.6l0.1,0.1
				c0.2,0.2,0.5,0.3,0.7,0.5c0.2,0.2,0.6,0.5,1,0.8l1,0.8v-9.7H-1961.6z"/>
		</g>
	</g>
	<g>
		<text transform="matrix(1 0 0 1 -1934.2539 326.3267)"><tspan x="0" y="0" class="st3 st9 st10">Escuela </tspan><tspan x="0" y="17.2" class="st3 st9 st10">Superior Politécnica </tspan><tspan x="0" y="34.3" class="st3 st9 st10">de Chimborazo</tspan></text>
	</g>
</g>
<g>
	<text transform="matrix(1 0 0 1 -1147.2539 87.3267)"><tspan x="0" y="0" class="st3 st9 st10">Escuela </tspan><tspan x="0" y="17.2" class="st3 st9 st10">Superior Politécnica </tspan><tspan x="0" y="34.3" class="st3 st9 st10">de Chimborazo</tspan></text>
	<path class="st3" d="M-1164.2,118.7v-48h-3.7h-46.6h-3.7v47.9c0,0,0,0.1,0,0.1c0,0.3,0,3.2,2.3,5.6c1.8,1.8,4.4,2.8,7.7,2.9v0h0.1
		v0h1.6c0,0,0,0,0,0h9.1c0,0,0,0,0.1,0c0,0,4.3-0.1,6.3,2.4c2-2.5,6.2-2.4,6.3-2.4c0,0,0,0,0.1,0l10.1,0l0,0c3.6,0,6.4-1,8.2-2.9
		C-1164.2,122-1164.2,119.2-1164.2,118.7 M-1174.3,123.5h-10.4c-0.4,0-3.5,0-6.4,1.5c0,0,0,0,0,0c0,0,0,0,0,0
		c-2.8-1.5-6-1.5-6.4-1.5h-10.7c-2.3-0.1-4-0.6-5.1-1.7c-1.2-1.2-1.3-2.6-1.3-2.9l0-44.4h46.6v44.3c0,0,0,0.1,0,0.1
		c0,0,0,1.6-1.2,2.9C-1170.2,122.8-1171.9,123.4-1174.3,123.5L-1174.3,123.5z"/>
	<path class="st3" d="M-1178.8,106.2c-0.1,0-0.3,0-0.4,0c-0.7,0-1.1-0.4-1.1-0.4c-0.1-0.1-0.1-0.1-0.2-0.2c-2.7-2-4.6-1.8-6-1.7
		c-0.5,0.1-0.8,0.1-1.1,0c-0.2-0.1-0.9-0.6-1.4-1c-3.8-3.9-7.7-3.7-10.4-3c-2.5,0.7-4.3,2.2-4.7,2.5l-6.8,5.4v4.7l9.1-7.2
		c0,0,0.1-0.1,0.1-0.1c0.5-0.5,5.4-4.6,10,0.2c0,0,0.1,0.1,0.1,0.1c0.5,0.5,1.9,1.6,3.1,1.9c0.9,0.2,1.7,0.1,2.4,0.1
		c1-0.1,1.8-0.2,3.3,0.9c0.4,0.4,1.7,1.4,3.6,1.4c0.2,0,0.3,0,0.5,0c0.9,0,1.9-0.1,3.7,1.3c0.6,0.5,1.8,1.4,3.3,2.5v-4.7
		c-0.4-0.3-0.8-0.6-1-0.8C-1175.5,106-1177.6,106.1-1178.8,106.2"/>
	<path class="st3" d="M-1173.8,96c-0.4-1.3-0.9-2.6-1.6-3.8l2.2-2.2l-7.1-7.1l-2.2,2.2c-1.2-0.7-2.4-1.2-3.8-1.6v-3.1h-10v3.1
		c-1.3,0.4-2.6,0.9-3.7,1.6l-2.2-2.2l-7.1,7.1l2.2,2.2c-0.7,1.2-1.2,2.4-1.6,3.8h-3.1v8.4l2.9-2.3v-3.2h2.5l0.2-1.1
		c0.4-1.8,1.1-3.4,2-4.9l0.6-1l-1.7-1.7l3-3l1.7,1.7l1-0.6c1.5-1,3.2-1.7,4.9-2.1l1.1-0.2v-2.5h4.2v2.5l1.1,0.2
		c1.8,0.4,3.4,1.1,4.9,2.1l1,0.6l1.7-1.7l3,3l-1.7,1.7l0.6,1c1,1.5,1.7,3.2,2,4.9l0.2,1.1h2.5v4.6l0.1,0.1c0.2,0.2,0.5,0.3,0.7,0.5
		c0.2,0.2,0.6,0.5,1,0.8l1,0.8V96H-1173.8z"/>
	<line class="st3" x1="-1155.7" y1="70.2" x2="-1155.7" y2="126.8"/>
</g>
<image style="overflow:visible;" width="448" height="59" xlink:href="4AF63513.jpg"  transform="matrix(1 0 0 1 -1246 900)">
</image>
<image style="overflow:visible;" width="448" height="59" xlink:href="4AF6351D.jpg"  transform="matrix(1 0 0 1 -1246 989)">
</image>
<image style="overflow:visible;" width="448" height="59" xlink:href="4AF6351E.jpg"  transform="matrix(1 0 0 1 -798 989)">
</image>
<rect x="563.9" y="213.7" style="fill:none;" width="371.1" height="44.3"/>
<text transform="matrix(1 0 0 1 569.4102 242.0186)" class="st3" style="font-family:'Roboto-Bold'; font-size:37.7134px;">Sistema de Admisión</text>
<g>
	<g>
		<g>
			<path class="st3" d="M11.4,368.3L11.4,368.3L11.4,368.3L11.4,368.3L11.4,368.3c-2.9-1.5-6-1.5-6.4-1.5H-9v3.7H5c0,0,0,0,0.1,0
				c0,0,4.3-0.1,6.3,2.4l0,0h0l0,0c2-2.5,6.2-2.4,6.3-2.4c0,0,0,0,0.1,0h13.9v-3.7H17.8C17.3,366.8,14.2,366.8,11.4,368.3z"/>
			<path class="st3" d="M38.3,351.2v-48.4h-3.7H-12h-3.7v48.3c0,0,0,0.1,0,0.1c0,0.3,0,3.2,2.3,5.6c1.8,1.8,4.4,2.8,7.7,2.9v0h0.1v0
				H-4l0,0H5c0,0,0,0,0.1,0c0,0,4.3-0.1,6.3,2.4l0,0h0c2-2.5,6.2-2.4,6.3-2.4c0,0,0,0,0.1,0l10.1,0l0,0c3.6,0,6.4-1,8.2-2.9
				C38.3,354.5,38.3,351.7,38.3,351.2z M-12,306.6h46.6v44.6c0,0,0,0,0,0.1c0,0,0,1.7-1.2,2.9c-1.1,1.1-2.8,1.7-5.2,1.8l0,0.4l0-0.4
				H17.8c-0.4,0-3.5,0-6.4,1.5c0,0,0,0,0,0h0l0,0c0,0,0,0,0,0c-2.8-1.5-6-1.5-6.4-1.5H-5.6c-2.3-0.1-4-0.6-5.1-1.7
				c-1.2-1.2-1.3-2.7-1.3-2.9L-12,306.6z"/>
			<path class="st3" d="M23.7,338.6c-0.1,0-0.3,0-0.4,0c-0.7,0-1.1-0.4-1.1-0.4l0,0c-0.1-0.1-0.1-0.1-0.2-0.2c-2.7-2-4.6-1.8-6-1.7
				c-0.5,0.1-0.8,0.1-1.1,0c-0.2-0.1-0.9-0.6-1.4-1c-3.8-3.9-7.7-3.8-10.4-3c-2.5,0.8-4.3,2.3-4.7,2.6l-6.8,5.4v4.8l9.1-7.3
				c0,0,0.1-0.1,0.1-0.1c0.5-0.5,5.4-4.6,10,0.2c0,0,0.1,0.1,0.1,0.1c0.5,0.5,1.9,1.6,3.1,1.9c0.9,0.2,1.7,0.1,2.4,0.1
				c1-0.1,1.8-0.2,3.3,0.9c0.4,0.4,1.7,1.4,3.6,1.4c0.2,0,0.3,0,0.5,0c0.9,0,1.9-0.1,3.7,1.3c0.6,0.5,1.8,1.4,3.3,2.5v-4.7
				c-0.4-0.3-0.8-0.6-1-0.8C26.9,338.5,24.9,338.6,23.7,338.6z"/>
			<path class="st3" d="M28.7,328.3c-0.4-1.3-0.9-2.6-1.6-3.8l2.2-2.2l-7.1-7.1l-2.2,2.2c-1.2-0.7-2.4-1.2-3.7-1.6v-3.1h-10v3.1
				c-1.3,0.4-2.6,0.9-3.7,1.6l-2.2-2.2l-7.1,7.1l2.2,2.2c-0.7,1.2-1.2,2.5-1.6,3.8h-3.1v8.5l2.9-2.3v-3.3h2.5l0.2-1.1
				c0.4-1.8,1.1-3.5,2-5l0.6-1l-1.7-1.8l3-3l1.7,1.8l1-0.6c1.5-1,3.2-1.7,4.9-2.1l1.1-0.2v-2.5h4.2v2.5l1.1,0.2
				c1.8,0.4,3.4,1.1,4.9,2.1l1,0.6l1.7-1.8l3,3l-1.7,1.8l0.6,1c1,1.5,1.7,3.2,2,5l0.2,1.1h2.5l0,4.6l0.1,0.1
				c0.2,0.2,0.5,0.3,0.7,0.5c0.2,0.2,0.6,0.5,1,0.8l1,0.8v-9.7H28.7z"/>
		</g>
	</g>
	<g>
		<text transform="matrix(1 0 0 1 56.028 325.2678)"><tspan x="0" y="0" class="st3 st9 st10">Escuela </tspan><tspan x="0" y="17.2" class="st3 st9 st10">Superior Politécnica </tspan><tspan x="0" y="34.3" class="st3 st9 st10">de Chimborazo</tspan></text>
	</g>
</g>
<g>
	<g>
		<g>
			<path class="st3" d="M30.4,70.3L30.4,70.3L30.4,70.3L30.4,70.3L30.4,70.3c-2.9-1.5-6-1.5-6.4-1.5H10v3.7h14c0,0,0,0,0.1,0
				c0,0,4.3-0.1,6.3,2.4l0,0h0l0,0c2-2.5,6.2-2.4,6.3-2.4c0,0,0,0,0.1,0h13.9v-3.7H36.8C36.3,68.8,33.2,68.8,30.4,70.3z"/>
			<path class="st3" d="M57.3,53.2V4.9h-3.7H7H3.3v48.3c0,0,0,0.1,0,0.1c0,0.3,0,3.2,2.3,5.6c1.8,1.8,4.4,2.8,7.7,2.9v0h0.1v0H15
				l0,0H24c0,0,0,0,0.1,0c0,0,4.3-0.1,6.3,2.4l0,0h0c2-2.5,6.2-2.4,6.3-2.4c0,0,0,0,0.1,0l10.1,0l0,0c3.6,0,6.4-1,8.2-2.9
				C57.3,56.5,57.3,53.7,57.3,53.2z M7,8.6h46.6v44.6c0,0,0,0,0,0.1c0,0,0,1.7-1.2,2.9c-1.1,1.1-2.8,1.7-5.2,1.8l0,0.4l0-0.4H36.8
				c-0.4,0-3.5,0-6.4,1.5c0,0,0,0,0,0h0l0,0c0,0,0,0,0,0c-2.8-1.5-6-1.5-6.4-1.5H13.4c-2.3-0.1-4-0.6-5.1-1.7
				C7.1,55.1,7,53.7,7,53.4L7,8.6z"/>
			<path class="st3" d="M42.7,40.6c-0.1,0-0.3,0-0.4,0c-0.7,0-1.1-0.4-1.1-0.4l0,0c-0.1-0.1-0.1-0.1-0.2-0.2c-2.7-2-4.6-1.8-6-1.7
				c-0.5,0.1-0.8,0.1-1.1,0c-0.2-0.1-0.9-0.6-1.4-1c-3.8-3.9-7.7-3.8-10.4-3c-2.5,0.8-4.3,2.3-4.7,2.6l-6.8,5.4v4.8l9.1-7.3
				c0,0,0.1-0.1,0.1-0.1c0.5-0.5,5.4-4.6,10,0.2c0,0,0.1,0.1,0.1,0.1c0.5,0.5,1.9,1.6,3.1,1.9c0.9,0.2,1.7,0.1,2.4,0.1
				c1-0.1,1.8-0.2,3.3,0.9c0.4,0.4,1.7,1.4,3.6,1.4c0.2,0,0.3,0,0.5,0c0.9,0,1.9-0.1,3.7,1.3c0.6,0.5,1.8,1.4,3.3,2.5v-4.7
				c-0.4-0.3-0.8-0.6-1-0.8C45.9,40.5,43.9,40.6,42.7,40.6z"/>
			<path class="st3" d="M47.7,30.3c-0.4-1.3-0.9-2.6-1.6-3.8l2.2-2.2l-7.1-7.1l-2.2,2.2c-1.2-0.7-2.4-1.2-3.7-1.6v-3.1h-10v3.1
				c-1.3,0.4-2.6,0.9-3.7,1.6l-2.2-2.2l-7.1,7.1l2.2,2.2c-0.7,1.2-1.2,2.5-1.6,3.8H9.9v8.5l2.9-2.3v-3.3h2.5l0.2-1.1
				c0.4-1.8,1.1-3.5,2-5l0.6-1l-1.7-1.8l3-3l1.7,1.8l1-0.6c1.5-1,3.2-1.7,4.9-2.1l1.1-0.2v-2.5h4.2v2.5l1.1,0.2
				c1.8,0.4,3.4,1.1,4.9,2.1l1,0.6l1.7-1.8l3,3l-1.7,1.8l0.6,1c1,1.5,1.7,3.2,2,5l0.2,1.1h2.5l0,4.6l0.1,0.1
				c0.2,0.2,0.5,0.3,0.7,0.5c0.2,0.2,0.6,0.5,1,0.8l1,0.8v-9.7H47.7z"/>
		</g>
	</g>
	<g>
		<text transform="matrix(1 0 0 1 75.028 27.2678)"><tspan x="0" y="0" class="st3 st9 st10">Escuela </tspan><tspan x="0" y="17.2" class="st3 st9 st10">Superior Politécnica </tspan><tspan x="0" y="34.3" class="st3 st9 st10">de Chimborazo</tspan></text>
	</g>
</g>
<g>
	<rect x="652.9" y="489" style="fill:none;" width="662.1" height="37.3"/>
	<text transform="matrix(1 0 0 1 761.6716 517.3171)" style="font-family:'Roboto-Bold'; font-size:37.7134px;">Autenticación del Sistema</text>
</g>
<path class="st3" d="M1148.5,591.5c-0.4,0-0.9,0-1.3,0c-0.7,0-1.3-0.6-1.3-1.3c0-0.6,0-1.3,0-2c0-0.7,0.5-1.3,1.3-1.3
	c0.9,0,1.8,0,2.6,0c0.7,0,1.3,0.6,1.3,1.3c0,0.7,0,1.3,0,2c0,0.7-0.6,1.3-1.3,1.3C1149.4,591.5,1149,591.5,1148.5,591.5z
	 M1149.8,590.2c0-0.7,0-1.3,0-1.9c-0.9,0-1.7,0-2.6,0c0,0.6,0,1.3,0,1.9C1148.1,590.2,1148.9,590.2,1149.8,590.2z"/>
<path class="st3" d="M1156.3,591.5c-0.4,0-0.9,0-1.3,0c-0.7,0-1.3-0.6-1.3-1.3c0-0.6,0-1.3,0-2c0-0.8,0.6-1.3,1.3-1.3
	c0.9,0,1.7,0,2.6,0c0.8,0,1.3,0.6,1.3,1.3c0,0.6,0,1.3,0,1.9c0,0.8-0.6,1.3-1.3,1.3C1157.2,591.5,1156.8,591.5,1156.3,591.5z
	 M1157.6,588.2c-0.9,0-1.7,0-2.6,0c0,0.7,0,1.3,0,1.9c0.9,0,1.7,0,2.6,0C1157.6,589.5,1157.6,588.9,1157.6,588.2z"/>
<path class="st3" d="M1164.1,586.9c0.4,0,0.9,0,1.3,0c0.7,0,1.3,0.6,1.3,1.3c0,0.7,0,1.3,0,2c0,0.7-0.6,1.3-1.3,1.3
	c-0.9,0-1.8,0-2.6,0c-0.7,0-1.3-0.6-1.3-1.3c0-0.7,0-1.4,0-2c0-0.7,0.6-1.2,1.3-1.2C1163.3,586.9,1163.7,586.9,1164.1,586.9z
	 M1165.4,590.2c0-0.7,0-1.3,0-1.9c-0.9,0-1.7,0-2.6,0c0,0.6,0,1.3,0,1.9C1163.7,590.2,1164.6,590.2,1165.4,590.2z"/>
<path class="st3" d="M1172,591.5c-0.4,0-0.9,0-1.3,0c-0.8,0-1.3-0.6-1.3-1.3c0-0.6,0-1.3,0-1.9c0-0.8,0.5-1.3,1.3-1.3
	c0.9,0,1.7,0,2.6,0c0.7,0,1.3,0.6,1.3,1.3c0,0.6,0,1.3,0,2c0,0.8-0.6,1.3-1.3,1.3C1172.8,591.5,1172.4,591.5,1172,591.5z
	 M1173.2,590.2c0-0.7,0-1.3,0-1.9c-0.9,0-1.7,0-2.5,0c0,0.6,0,1.3,0,1.9C1171.5,590.2,1172.4,590.2,1173.2,590.2z"/>
<rect x="718.9" y="573.9" style="fill:none;" width="324" height="20.6"/>
<text transform="matrix(1 0 0 1 718.9412 588.8557)" style="font-family:'MyriadPro-Regular'; font-size:21px;">Ingrese sus credenciales</text>
<rect x="967.9" y="999.9" style="fill:none;" width="189.1" height="21.1"/>
<text transform="matrix(1 0 0 1 967.9412 1012.7253)" style="font-family:'MyriadPro-BoldIt'; font-size:18px;">¿Olvidó su contraseña?</text>
<g>
	<image style="overflow:visible;" width="127" height="63" xlink:href="4AF6351C.jpg"  transform="matrix(1 0 0 1 999 929)">
	</image>
	<rect x="1018" y="951" class="st8" width="97" height="19"/>
	<rect x="1038" y="954.2" style="fill:none;" width="53" height="15.8"/>
	<text transform="matrix(1 0 0 1 1038 964.8052)" class="st3" style="font-family:'MyriadPro-Regular'; font-size:15px;">Acceso</text>
</g>
<image style="overflow:visible;" width="448" height="59" xlink:href="D595AB51.jpg"  transform="matrix(1 0 0 1 824 619)">
</image>
<image style="overflow:visible;" width="448" height="59" xlink:href="D595AB57.jpg"  transform="matrix(1 0 0 1 826 705)">
</image>
<image style="overflow:visible;" width="452" height="510" xlink:href="D595AB50.jpg"  transform="matrix(1 0 0 1 -1878 514)">
</image>
<image style="overflow:visible;" width="452" height="510" xlink:href="D595AB53.jpg"  transform="matrix(1 0 0 1 163 522)">
</image>
<g>
	
		<image style="overflow:visible;" width="458" height="344" xlink:href="D595AB51.png"  transform="matrix(1.3009 0 0 1.2994 843 1467)">
	</image>
</g>
<image style="overflow:visible;" width="332" height="119" xlink:href="D595AB6F.jpg"  transform="matrix(1 0 0 1 894 791)">
</image>
<rect x="721" y="723.6" style="fill:none;" width="116" height="11.4"/>
<text transform="matrix(1 0 0 1 721 732.1675)" style="font-family:'MyriadPro-Bold'; font-size:12px;">Ingrese contraseña:</text>
<rect x="721" y="638.6" style="fill:none;" width="116" height="11.4"/>
<text transform="matrix(1 0 0 1 721 647.1675)" style="font-family:'MyriadPro-Bold'; font-size:12px;">Nombre de usuario:</text>
</svg>
